<svg width="48" height="48" viewBox="0 0 48 48" fill="none" xmlns="http://www.w3.org/2000/svg">
<g clip-path="url(#clip0_1_2)">
<path d="M3.3 35.4H20.5L20.6 35.5C20.8 35.7 20.9 35.9 21.1 36C22.4 37.3 24 38.2 25.7 38.7C26.7 39 27.7 39.1 28.6 39.1C31.1 39.1 33.5 38.2 35.4 36.6L36 37.2L34 39.4L37.4 42.8L38.2 42L42.7 46.5C43.2 47 43.8 47.2 44.4 47.2C45 47.2 45.7 47 46.1 46.5L46.7 45.9C47.2 45.4 47.4 44.8 47.4 44.2C47.4 43.5 47.1 42.9 46.7 42.5L42.2 38L43 37.2L39.6 33.8L37.4 36L37 35.3C39 32.9 39.9 29.7 39.3 26.5C38.9 24.4 37.9 22.4 36.3 20.9C36.1 20.7 35.9 20.5 35.7 20.3V11.6V6.3C35.7 4.7 34.4 3.5 32.9 3.5H29.6V0.799999H27.6V3.5H24.8V0.799999H22.8V3.5H13.6V0.799999H11.6V3.5H8.7V0.799999H6.7V3.5H3.3C1.7 3.5 0.5 4.8 0.5 6.3V11.6V32.5C0.5 34.1 1.8 35.4 3.3 35.4ZM45.4 43.8C45.5 43.9 45.5 44.1 45.5 44.1C45.5 44.1 45.5 44.3 45.4 44.4L44.8 45C44.6 45.2 44.3 45.2 44.1 45L39.6 40.5L40.8 39.3L45.4 43.8ZM40.3 37.1L37.4 40L36.8 39.4L39.7 36.5L40.3 37.1ZM2.5 6.3C2.5 5.9 2.9 5.5 3.3 5.5H6.6V8.2H8.6V5.5H11.4V8.2H13.4V5.5H22.6V8.2H24.6V5.5H27.4V8.2H29.4V5.5H32.7C33.1 5.5 33.5 5.9 33.5 6.3V11.6H2.5V6.3ZM3.3 33.4C2.8 33.4 2.5 33 2.5 32.6V13.6H33.7V18.9C33.6 18.9 33.6 18.8 33.5 18.8C33.2 18.6 32.8 18.5 32.5 18.4C32.4 18.4 32.3 18.3 32.1 18.3C31.7 18.2 31.2 18 30.8 17.9C30.3 17.8 29.8 17.7 29.3 17.7C29.2 17.7 29 17.7 28.9 17.7C28.8 17.7 28.7 17.7 28.6 17.7H6.8V19.7H22.6C22.1 20 21.7 20.4 21.2 20.8C20.7 21.3 20.3 21.8 19.9 22.4H6.8V24.4H18.8C18.5 25.2 18.3 25.9 18.2 26.8C18.2 26.9 18.2 27.1 18.2 27.2H6.8V29.2H18.1C18.1 29.8 18.2 30.4 18.4 30.9C18.5 31.3 18.6 31.6 18.7 32C18.7 32.1 18.8 32.2 18.8 32.3C18.9 32.6 19.1 32.9 19.2 33.2V33.3H3.3V33.4ZM37.3 26.9C37.8 29.7 36.9 32.6 34.9 34.6C32.7 36.8 29.4 37.7 26.4 36.8C25 36.4 23.7 35.6 22.6 34.6C22.4 34.4 22.3 34.3 22.2 34.1L22 34L21.9 33.8C21.7 33.6 21.6 33.4 21.4 33.1C20.9 32.3 20.5 31.4 20.3 30.5C20 29.4 20 28.3 20.1 27.1C20.4 25.3 21.2 23.6 22.5 22.3C24.2 20.6 26.4 19.8 28.7 19.8C28.8 19.8 28.8 19.8 28.9 19.8C29.4 19.8 29.8 19.9 30.2 19.9C31.4 20.1 32.5 20.6 33.6 21.3C33.7 21.3 33.7 21.4 33.8 21.4L35.3 22.9C36.4 24.1 37 25.4 37.3 26.9Z" fill="#3C5BA4"/>
</g>
<defs>
<clipPath id="clip0_1_2">
<rect width="48" height="48" fill="white"/>
</clipPath>
</defs>
</svg>
