<svg xmlns="http://www.w3.org/2000/svg" width="3264" height="816"><path d="M2062 64c1.663 4.989 1.31 10.151 1.375 15.375l.113 3.445c.087 8.207.087 8.207-1.592 11.048-1.357 1.359-1.357 1.359-3.896 3.132l-1 1c-1.52.072-3.042.084-4.563.063l-2.503-.028L2048 98l-1 3c-1.996.66-1.996.66-4.438 1.063-3.704.569-3.704.569-6.562 2.937a256.638 256.638 0 01-7 2c-2.8.835-2.8.835-5 2l-1 3c-1.375 1.688-1.375 1.688-3 3h-3v4h-3l-1 7h-3l.07 3.176c.02 1.379.037 2.758.055 4.137.017.69.034 1.38.05 2.091.037 3.767-.031 5.38-2.175 8.596-.194 2.85-.268 5.603-.252 8.453l-.008 2.66c-.008 2.966 0 5.933.006 8.9a7158.947 7158.947 0 00-.007 24.1c.004 6.349-.003 12.699-.008 19.048-.009 11.727-.008 23.454-.003 35.181.005 10.832.007 21.663.004 32.495v2.175l-.002 8.738c-.006 27.341 0 54.682.01 82.023.01 24.31.009 48.618 0 72.927a132325.977 132325.977 0 00-.008 90.597v2.17c.003 10.827 0 21.654-.005 32.482-.005 12.306-.004 24.612.007 36.918.005 6.285.007 12.57 0 18.855-.005 5.744-.002 11.488.009 17.232.002 2.087 0 4.174-.004 6.26-.006 2.82 0 5.64.01 8.458l-.015 2.5c-.145 4.382-.145 4.382 2.266 7.828.195 3.04.195 3.04.125 6.625l-.055 3.602L2010 677h3l1 7h3v3l3 1c2.188 1.938 2.188 1.938 4 4v2l1.563.25c3.482 1.071 6.309 2.885 9.437 4.75v2l3.875-.062c3.875-.063 3.875-.063 6.125 1.062v2l3.125-.125c5.222.168 8.429.95 12.51 4.266 2.93 3.542 3.014 5.362 3.072 9.91l.046 1.996c.043 2.089.052 4.176.06 6.266.023 1.422.048 2.845.076 4.267.062 3.473.095 6.946.111 10.42l-2.188-.562c-2.712-.595-2.712-.595-4.973.027-3.699.697-7.327.667-11.075.65l-2.502.002c-2.765 0-5.529-.008-8.293-.016l-5.948-.005c-6.507-.006-13.014-.023-19.521-.041l-6.72-.018c-9.315-.024-18.63-.052-27.944-.087-13.353-.05-26.705-.084-40.058-.093-9.39-.008-18.778-.036-28.166-.077-5.61-.024-11.218-.04-16.827-.036a1985.83 1985.83 0 01-15.818-.054c-1.936-.01-3.872-.01-5.808-.003-2.642.01-5.281-.012-7.923-.041l-2.327.03c-3.97-.078-5.737-.54-8.885-3.04-2.395-3.12-2.645-4.63-2.618-8.523l.008-3.342.086-3.458-.008-3.495c.074-6.294.074-6.294.508-8.818 3-2 3-2 7-2l1-3c3.473-1.158 6.36-1.069 10-1v-2c3.215-1.607 6.436-1.057 10-1l1-3 6-1 1-3h6l1-4h2l.313-1.625c.868-3 2.243-5.613 3.687-8.375h3l-.062-3.875c-.063-3.875-.063-3.875 1.062-6.125h2l-.016-2.029c-.02-3.094-.034-6.189-.046-9.283l-.026-3.19c-.045-14.57-.045-14.57 1.088-20.498l2-2c.206-2.908.285-5.721.278-8.63l.018-2.734c.017-3.05.02-6.1.023-9.15l.03-6.64c.028-5.943.043-11.887.056-17.831.014-5.571.039-11.142.063-16.713.063-16.309.109-32.618.157-48.927L1906 412h-265l1 5c.086 2.359.118 4.72.114 7.08v2.124c0 2.343-.009 4.686-.016 7.03l-.005 5.046c-.003 3.619-.01 7.237-.018 10.856-.013 5.718-.02 11.436-.024 17.154-.011 12.133-.03 24.265-.051 36.398-.022 13.107-.043 26.215-.053 39.323-.005 5.688-.015 11.377-.029 17.066-.007 3.531-.01 7.062-.013 10.594-.002 1.642-.005 3.284-.01 4.927-.008 2.234-.009 4.469-.009 6.703l-.006 3.796c-.081 2.842-.081 2.842 1.12 4.903a97.98 97.98 0 01.133 5.27l.004 3.193-.012 3.35.012 3.314-.004 3.205-.004 2.929c-.129 2.739-.129 2.739-.7 5.406-.65 2.476-.65 2.476.571 5.333 1.416 10.177 1.116 20.503 1.063 30.75A5048.344 5048.344 0 011644 670l3 1 1 9 3 1v3l3 1 1 5 6 2v2l4 1v2l6 1 1 3 3.875-.062c3.875-.063 3.875-.063 6.125 1.062v2l3.188-.125c4.985.163 7.708 1.39 11.812 4.125v2h2c.986 2.96 1.129 4.914 1.133 8l.004 2.938-.012 3.062.012 3.063-.004 2.937-.004 2.688C1700 735 1700 735 1699 738c-3.614 2.73-7.897 2.295-12.223 2.292l-2.535.022c-2.806.021-5.613.029-8.42.037-2.01.012-4.02.026-6.03.04-5.466.036-10.93.059-16.395.08-5.717.023-11.433.055-17.149.086-9.602.051-19.204.093-28.806.131-11.101.044-22.203.102-33.305.167-9.528.056-19.055.104-28.583.145-5.693.025-11.385.053-17.077.087-5.353.033-10.706.055-16.06.07-1.964.006-3.929.017-5.894.031-2.682.019-5.364.025-8.046.028l-2.356.025c-4.708-.011-7.47-.69-12.121-2.241v-30l4-1 1-3 2.3-.367 3.013-.508 2.988-.492c2.9-.514 2.9-.514 5.699-2.633 2.262-.195 2.262-.195 4.688-.125l2.449.055 1.863.07v-3l7-2v-2l3-1 1-2h3l.875-1.812C1528 687 1528 687 1530 684h3v-6l3-1-.035-2.3c-.01-.995-.018-1.989-.027-3.012l-.036-2.989C1536 666 1536 666 1537 663h3c-.061-49.547-.125-99.094-.201-148.64l-.004-2.221a843877.21 843877.21 0 00-.112-71.197l-.004-2.355c-.04-25.207-.074-50.414-.104-75.62a136309.477 136309.477 0 00-.133-88.643l-.004-2.179c-.02-11.596-.033-23.193-.043-34.79-.011-11.645-.029-23.29-.054-34.936-.014-6.315-.024-12.63-.025-18.945-.002-5.773-.012-11.545-.03-17.317a1866.26 1866.26 0 01-.004-6.29c.002-2.834-.007-5.667-.02-8.5l.01-2.512c.143-4.396.143-4.396-2.272-7.855-.633-3.625-1.022-7.254-1.438-10.91-.185-1.02-.37-2.04-.562-3.09l-2-1-.813-2.75c-1.38-3.777-3.341-5.48-6.187-8.25v-3l-1.625-.25c-3.248-1.026-5.663-2.716-8.375-4.75v-2h-7l-1-2c-2.307-.599-4.617-.957-6.969-1.34L1499 101l-1-3h-9l-1-3-4-1V64c4.567-.913 8.705-1.14 13.319-1.127l2.529-.005c2.794-.004 5.588 0 8.383.003l6.012-.006c5.442-.004 10.884-.002 16.326 0 5.691.003 11.383 0 17.075 0 9.557-.003 19.114 0 28.672.005 11.055.005 22.111.003 33.167-.002 9.487-.005 18.974-.005 28.461-.003 5.669.002 11.337.002 17.006-.001 5.328-.003 10.655-.001 15.983.005 1.958 0 3.915 0 5.873-.002 2.667-.002 5.335.001 8.002.006l2.36-.007c6.94.026 6.94.026 9.832 1.134 4.006 4.452 3.48 9.722 3.438 15.375l.06 2.79c-.004 6.114-.815 9.893-4.498 14.835-3.015 1.005-5.042 1.103-8.188 1.063l-2.73-.028L1683 98l-1 3c-2.031.914-2.031.914-4.5 1.625-3.016.722-3.016.722-5.5 2.375-2.333.04-4.667.042-7 0v3l-1.938.313L1661 109l-1 3a262.496 262.496 0 01-5 4l-2 3h-2l-.25 1.938c-1.045 4.267-2.89 8.093-4.75 12.062h-2c.01 1.135.02 2.27.032 3.44.036 4.21.059 8.42.078 12.63.01 1.823.024 3.646.04 5.468.025 2.62.036 5.238.045 7.857l.032 2.471c0 3.905-.01 5.81-2.227 9.134.015 3.34.015 3.34.437 7 .663 6.699.663 6.699-.437 10a165.885 165.885 0 00-.158 6.777l-.015 2.094c-.016 2.328-.024 4.655-.032 6.983l-.03 5.078c-.028 4.539-.049 9.078-.069 13.617-.02 4.257-.044 8.514-.069 12.77-.068 12.457-.128 24.913-.19 37.369L1641 360h265V169h-2c-3.838-7.676-2.3-19.736-2.518-28.186l-.103-2.974-.076-2.676c-.11-2.373-.11-2.373-2.303-4.164l-.813-3.187c-1.208-3.88-2.656-6.133-5.164-9.235C1892 117 1892 117 1892 114h-2l-4-4c-2.133-1.235-2.133-1.235-4-2v-3l-3.875.125c-2.18.07-2.18.07-4.125-.125l-2-2-3.563-.937L1865 101l-1-3c-.64.07-1.281.14-1.941.21-.865.055-1.73.11-2.622.165-.846.07-1.693.14-2.566.21-4.47-.911-7.323-2.763-9.871-6.585-.924-4.26-.798-8.349-.625-12.687l.02-3.456c.166-8.275.166-8.275 1.951-10.641 3.87-2.845 8.195-2.374 12.77-2.388l2.536-.019c2.815-.02 5.63-.033 8.443-.046l6.041-.04c5.478-.035 10.955-.065 16.432-.092l10.258-.056c11.922-.068 23.844-.13 35.766-.188 11.125-.053 22.25-.119 33.375-.189 9.542-.06 19.085-.112 28.627-.158a8136.24 8136.24 0 0017.11-.097 5073.91 5073.91 0 0116.086-.081c1.97-.009 3.941-.02 5.912-.036 2.685-.021 5.37-.03 8.055-.035l2.375-.028c6.935.011 6.935.011 9.868 2.237z" fill="#7C479B"/><path d="M2842 30v2h5l1 301 8-7h2l.125-1.688c1.1-2.909 2.91-4.153 5.332-6.011 1.778-1.394 1.778-1.394 3.543-4.051 2.532-2.848 4.278-2.996 8-3.25l1-4h3v-3h3l1-4h3l1-3h3v-3c3.208-2.383 6.064-3.438 10-4v-3h4l2-4h4l1-3h6l.313-1.938L2918 276l3-1 1-2h7l2-4h7l1-3 2.813-.313c3.16-.35 3.16-.35 4.53-2.218 2.4-2.128 4.2-1.767 7.345-1.656l3.011.082L2959 262l1-3h13l1-3c2.491-1.245 4.166-1.127 6.953-1.13l3.125-.009 3.387.006 3.467-.003c2.424 0 4.847.001 7.27.006 3.716.005 7.432 0 11.148-.007 2.35 0 4.701.002 7.052.004l3.381-.006 3.135.01 2.76.002C3028 255 3028 255 3031 256l1 2c3.046.47 3.046.47 6.563.625l3.628.227L3045 259l1 3 2.082-.07 2.73-.055 2.708-.07C3056 262 3056 262 3059 264v2h8v3h6l1 4h7v3h6l1 4h5l1 3c2.015.733 2.015.733 4 1v3h4v3h3v3l2.375.25c2.625.75 2.625.75 3.938 2.813L3112 298h2v2h2v4h3v3l4 1v3h3v4h3l1 6 3 1v3h3l1 7h3l.875 2.375c.974 2.722.974 2.722 3.125 4.625a208.063 208.063 0 012 5l1 1c.141 2.67.042 5.324 0 8l4 1v6l3 1v9l3 1c1.607 3.215 1.057 6.436 1 10h3v11l3 1c1.005 3.015 1.103 5.042 1.063 8.188l-.028 2.73L3165 406h2c1.443 4.33 1.354 8.753 1.518 13.283.063 4.32.063 4.32 2.482 7.717.996 4.33 1.117 8.499 1.098 12.93l-.01 3.906-.026 4.039A3763.815 3763.815 0 013172 462h2.001c1.09 3.27 1.133 5.68 1.145 9.12l.02 3.824.003 4.138.01 4.249c.006 2.97.008 5.94.007 8.91 0 3.796.014 7.592.031 11.388.011 2.926.013 5.853.013 8.779 0 1.399.005 2.798.013 4.197.01 1.962.006 3.924 0 5.886l.005 3.378c-.263 3.33-1.113 6.002-2.247 9.131-.326 2.792-.326 2.792-.344 5.625l-.09 3.14-.066 3.235c-.263 12.804-.263 12.804-2.5 18h-2v16l-3 1 .07 2.45.055 3.237.07 3.2c-.196 3.136-.864 5.29-2.195 8.113h-2v10l-3 1c.03 1.64.03 1.64.063 3.313C3158 617 3158 617 3157 620h-3c.03 1.918.03 1.918.063 3.875.062 3.875.062 3.875-1.063 6.125h-2l-.375 3.438L3150 637l-2 1a128.606 128.606 0 00-2 7h-2l-1 6-3 1v5l-3 1-.5 2-.5 2-3 1v5l-3 1c-.733 2.015-.733 2.015-1 4h-3l-1 4h-2l-.375 2.438L3122 682l-2 1-1 3c-1.875 2.188-1.875 2.188-4 4h-3l-1 4h-2l-1 3h-3l-.313 1.813c-1.185 3.772-3.21 4.924-6.624 6.812-2.408 1.081-4.49 1.88-7.063 2.375v3l-4 1v2l-6 1v3l-3 1-1 2c-2.322.407-4.657.744-7 1v2l-7 2v2l-7 1-1 3-9 1v2c-4.962 1.915-9.864 3.6-15 5-3.356.95-6.691 1.897-10 3-3.386.269-6.772.445-10.164.621L3008 744l-1 2c-6.918 1.2-13.925 1.33-20.93 1.605l-2.586.114-2.32.092c-2.176.124-2.176.124-4.257.77C2975 749 2975 749 2972 748l-3 1c-1.665.093-3.333.13-5 .133l-2.937.004-3.063-.012-3.062.012-2.938-.004-2.687-.004C2947 749 2947 749 2944 748a103.397 103.397 0 00-4.973-.281l-2.978-.114-3.111-.105c-20.773-.723-20.773-.723-24.938-3.5a106.592 106.592 0 00-7.5-.563c-7.147-.32-7.147-.32-10.5-1.437v-2l-3.027-.148-3.91-.227-3.903-.21c-1.043-.138-2.086-.274-3.16-.415l-1-2c-2.35-.69-2.35-.69-5.062-1.125l-2.786-.508L2865 735v-2l-10-1-1-3-2.875.313c-5.314.054-9.614-2.772-14.125-5.313v-2h-6l-1-3h-4l-1 3h-2l-1 3h-3l-.25 1.813c-.966 2.816-2.239 3.665-4.75 5.187h-2l-1 3c-1.559 1.387-1.559 1.387-3.437 2.688l-1.872 1.324C2804 740 2804 740 2802 740l-1 3h-3v3c-5.409 2.704-14.57 1.672-20.312.063C2775 745 2775 745 2774 744c-3.455-.503-6.918-.902-10.387-1.305-3.698-.711-6.388-1.77-9.613-3.695-1.153-2.306-1.126-3.603-1.128-6.17l-.01-2.669.005-2.957-.007-3.135c-.006-3.508-.005-7.015-.005-10.523l-.01-7.572c-.008-5.509-.013-11.017-.015-16.526-.003-8.191-.011-16.382-.021-24.574-.017-13.778-.029-27.556-.039-41.334-.014-19.678-.037-39.355-.061-59.033l-.03-23.672-.002-2.657c-.026-20.88-.048-41.76-.07-62.639l-.003-2.769a390398.687 390398.687 0 01-.076-80.64l-.002-2.77-.005-5.536a195855.622 195855.622 0 00-.118-104.282l-.003-2.563c-.018-13.64-.028-27.28-.035-40.92a39368.77 39368.77 0 00-.044-41.093c-.012-8.147-.02-16.294-.018-24.44 0-6.07-.01-12.14-.025-18.21-.004-2.465-.005-4.93-.002-7.396.003-3.333-.005-6.666-.017-9.999l.012-2.95-.017-2.677-.002-2.311c-.143-2.302-.143-2.302-2.252-4.983-.227-1.993-.227-1.993-.195-4.23l.02-2.432.05-2.526.027-2.56A931 931 0 012750 104l-3-1-1-7h-2l-1-2.563c-2.28-3.918-4.853-6.119-8.355-8.921L2733 83v-2l-1.875-.438C2729 80 2729 80 2727 79v-2l-3.875.125c-2.18.07-2.18.07-4.125-.125l-2-2a117.08 117.08 0 00-7-1c-6.778-.778-6.778-.778-9-3l-10-2V36c12.75-.938 12.75-.938 16.753-1.226l3.169-.239 3.237-.238c2.708-.211 2.708-.211 4.756-.797 2.138-.513 4.09-.697 6.284-.799l2.52-.12 2.746-.112 2.918-.126c11.467-.463 22.939-.625 34.413-.789 26.898-.382 26.898-.382 53.784-1.25 6.811-.28 13.604-.351 20.42-.304zm98 295v2l-13 1v3l-10 1v3h-5v2l-2.938.875c-3.169.767-3.169.767-4.062 3.125-2.563.625-2.563.625-5 1v3h-4v4h-4v3h-3a141.4 141.4 0 00-5 5l-3 2v3l-3 1v3h-3v3l-4 1v3h-3l-1 3-2 1v3l-4 2v5h-3l-.875 2.938C2856 393 2856 393 2854 394l-.5 3-.5 3-2 1c-.36 3.007-.444 5.994-.559 9.02-.441 2.98-.441 2.98-1.945 4.712-2.127 3.224-1.874 5.693-1.877 9.535l-.014 2.223c-.012 2.46-.003 4.918.007 7.376a2966.666 2966.666 0 00-.015 19.656c.008 5.013 0 10.025-.004 15.037-.006 8.42.002 16.842.016 25.263.016 9.73.01 19.46-.006 29.19-.013 8.356-.015 16.711-.007 25.066.004 4.99.005 9.98-.005 14.969-.009 4.694-.003 9.388.015 14.082.004 1.721.003 3.442-.004 5.163-.008 2.353.002 4.706.017 7.06l.003 3.987c.434 4.205 1.596 6.856 3.378 10.661.432 2.998.432 2.998.512 5.934l.107 3.212.069 3.292.103 3.373A932.3 932.3 0 012851 628l2 1c.357 2.52.444 5.013.559 7.555.517 2.869 1.369 3.507 3.441 5.445.688 3.688.688 3.688 1 7h3v7h3l.375 1.938L2865 660l2 1 2 5 2 1 1 3h3v3l3 1 1 3h3l1 3c1.652.702 3.32 1.37 5 2l1 2h3l1 3 2.438.375L2898 688l1 2c2.08.871 2.08.871 4.5 1.563 4.409 1.346 4.409 1.346 5.5 2.437 2.287.282 4.574.448 6.871.621C2918 695 2918 695 2920 697c2.68.416 5.304.746 8 1 7.73.73 7.73.73 10 3 2.558.2 5.004.28 7.563.266l2.263.005c1.58.002 3.161-.002 4.741-.01 2.423-.011 4.846 0 7.269.012 1.534 0 3.068-.003 4.602-.007l2.203.012c4.134.09 4.134.09 7.359-2.278 3.593-.634 7.189-1.022 10.813-1.438 3.27-.262 3.27-.262 5.187-2.562 2.013-.227 4.027-.453 6.043-.656 2.597-.456 3.982-1.641 5.957-3.344 2.55-1.112 5.135-2.05 7.75-3 2.407-.784 2.407-.784 3.25-3l5-2 1-2 3-1v-3l4-1v-2l3-1a317.62 317.62 0 005-6l2-1a61.184 61.184 0 004.063-7.25C3041 657 3041 657 3043 656l1-3 2-1 1-3 1-3 2-1 .5-2.5.5-2.5 2-1 .438-2.938L3054 633l3-2c.506-2.165.506-2.165.563-4.563.128-2.44.128-2.44.437-4.437l2-1c.615-2.284.615-2.284 1-4.938.78-4.842.78-4.842 3-7.062a99.9 99.9 0 00.625-7.125l.227-3.883L3065 595h2l.148-3.105.227-4.082c.03-.674.062-1.348.094-2.042.512-8.752.512-8.752 3.531-11.771.16-3.1.26-6.182.316-9.285l.063-2.82c.066-2.986.125-5.972.184-8.957l.13-6.057c.108-4.96.209-9.92.307-14.881h2l-1-3c-.125-3.625-.125-3.625 0-7l1-1c.129-2.492.185-4.945.188-7.438l.037-2.044c.01-3.857-.348-7.358-1.214-11.12-1.118-5.43-1.357-10.686-1.425-16.218l-.059-2.984a2228.61 2228.61 0 01-.152-9.321c-.038-2.122-.077-4.245-.117-6.367-.096-5.17-.18-10.339-.258-15.508h-2c-1.093-4.584-1.323-9.125-1.562-13.813l-.131-2.388c-.106-1.933-.207-3.866-.307-5.799h-2l-1-17h-3l-.148-2.117-.227-2.758-.21-2.742c-.21-2.562-.21-2.562-2.415-4.383-.337-2.046-.44-4.056-.559-6.125-.312-2.282-.312-2.282-3.441-3.875a202.076 202.076 0 01-1-7l-2-2-.437-1.938c-.404-2.151-.404-2.151-2.063-3.562-1.773-1.773-2.08-3.066-2.5-5.5h-2l-1-6h-3l-.375-1.938L3039 359l-2-1c-.625-3.063-.625-3.063-1-6h-4v-3h-3v-4h-4v-3a651.927 651.927 0 00-3.875-2l-2.18-1.125c-1.893-1.012-1.893-1.012-3.945-.875v-3l-2.562-.813c-10.086-3.484-10.086-3.484-11.438-6.187-2.095-.39-2.095-.39-4.5-.5-2.469-.156-2.469-.156-4.5-.5l-1-2c-17.079-.877-33.927-1.036-51 0z" fill="#CA3093"/><path d="M876.832 62.751l2.709-.008c3.011-.006 6.022.002 9.034.01 2.174-.002 4.349-.004 6.523-.008 5.988-.006 11.975 0 17.963.008 6.453.007 12.906.002 19.358-.002 11.185-.004 22.37-.001 33.555.007 11.735.009 23.47.013 35.206.013h11.094c27.79 0 55.579.01 83.368.025a128015.654 128015.654 0 0078.854.019h16.575a194281.41 194281.41 0 0172.955.013c10.27.003 20.541.005 30.812.005 13.234 0 26.469.005 39.704.014 6.384.005 12.768.008 19.152.007 5.84-.001 11.678.002 17.517.01h6.353c2.868-.002 5.736.002 8.604.007l2.518-.006c3.985.015 7.371.346 11.314 1.135v177h-55v-4h-3c-1.382-2.765-1.095-5.046-1.062-8.125l.027-3.32L1341 223h-3v-13l-4-1v-10h-3v-10l-4-2c-1.187-3.562-1.187-3.562-2-7l-1-1c-.04-2-.043-4 0-6l-3-1c-1.354-2.709-1.065-5.01-1-8l-3-1v-6l-1.812-.187C1313 156 1313 156 1311.25 153.75c-1.305-2.871-1.516-4.641-1.25-7.75l-3-1c-4-4.343-4-4.343-4-8l-4-1v-3l-1.625-.187c-3.425-1.172-5.642-3.478-8.375-5.813-2.216-1.279-2.216-1.279-4-2v-2l-6-1-1-3h-9l-1-3h-88a474967.41 474967.41 0 00.317 219.495l.004 2.327c.04 24.916.074 49.832.104 74.748a133183.051 133183.051 0 00.133 87.619l.004 2.154c.02 11.462.033 22.925.043 34.387.011 11.512.029 23.023.054 34.534.014 6.242.024 12.484.025 18.727.002 5.705.012 11.41.03 17.116.005 2.073.006 4.146.004 6.218-.002 2.8.007 5.601.02 8.402l-.01 2.483c-.136 4.362-.136 4.362 2.272 7.79 1.122 3.213 1.116 6.26 1.098 9.64l-.01 3.243-.025 3.367-.014 3.414c-.012 2.779-.028 5.557-.049 8.336h3l.113 2.3.2 3.013.175 2.988c.574 3.029 1.312 3.686 3.512 5.699.188 3.188.188 3.188 0 6l3 1v3h3a374.925 374.925 0 014 6l3 1 1 2 3 1 1 2c2.33.678 4.664 1.344 7 2l2 2c2.395.643 2.395.643 5.063 1.063 4.84.84 4.84.84 5.937 1.937 2.18.397 4.37.743 6.563 1.063l3.628.535L1242 705l1 3h3c1.41 2.818 1.112 5.173 1.098 8.32l-.01 3.809-.025 3.996c-.006 1.34-.01 2.68-.014 4.02-.012 3.285-.028 6.57-.049 9.855-5.227 3.189-9.264 3.41-15.187 3.323l-2.775-.005a1279.31 1279.31 0 01-9.19-.07c-2.198-.01-4.396-.02-6.594-.027-5.964-.026-11.928-.07-17.893-.119-6.234-.047-12.468-.076-18.702-.108-10.462-.055-20.925-.121-31.388-.195a23317.17 23317.17 0 00-44.34-.275c-27.644-.155-55.287-.333-82.931-.524l-1.437-2.937c-1.265-2.868-1.265-2.868-2.563-4.063-.436-3.065-.563-6.16-.75-9.25l-.207-2.605c-.295-4.916-.368-8.182 2.957-12.145 2.125-1.187 2.125-1.187 4-2l1-2c2.145-.562 2.145-.562 4.813-1 2.654-.44 4.798-.795 7.183-2.055 2.541-1.198 4.46-1.144 7.254-1.07l2.703.055 2.047.07v-3l7-1 1-3h6v-3c1.813-2.187 1.813-2.187 4-4h3v-3h3l1-5 3-1v-7l3-1-.07-2.082-.055-2.73-.07-2.708C1076 660 1076 660 1078 657c.369-2.483.369-2.483.41-5.335l.117-3.428.092-3.832.056-2.024c.574-20.76.452-41.536.426-62.302-.006-6.122-.007-12.244-.008-18.365a55874.81 55874.81 0 00-.018-31.715 83307.54 83307.54 0 01-.023-45.88l-.007-21.449v-2.167c-.006-16.96-.015-33.92-.024-50.88l-.002-2.244a1872412.088 1872412.088 0 00-.04-70v-2.254c-.01-16.98-.019-33.961-.024-50.941l-.001-2.163-.007-21.365a83803.51 83803.51 0 00-.024-45.847c-.01-11.12-.015-22.242-.017-33.363-.001-6.022-.004-12.045-.012-18.067-.006-5.51-.009-11.02-.007-16.531 0-1.995-.002-3.99-.006-5.984a2855.54 2855.54 0 01-.001-8.126l-.01-2.35c.014-4.878.441-9.558 1.13-14.388-10.918.084-21.835.18-32.753.288-5.07.05-10.138.096-15.207.134-4.89.037-9.778.083-14.667.136-1.868.019-3.737.034-5.605.045-2.61.017-5.22.046-7.83.078l-2.358.007c-4.251-.08-4.251-.08-7.58 2.312-2.164.195-2.164.195-4.625.125l-2.477-.055L985 119l-1 3-7 1v2l-6 1v3c-1.812 2.188-1.812 2.188-4 4h-3v3h-3l-1 4h-3v3h-3l-1 7h-3l.188 2.188c-.226 3.388-1.288 5.035-3.188 7.812l-2 3h-2v7l-3 1v5l-4 2v9l-3 1 .035 1.898.028 2.477.035 2.46C933 197 933 197 932 199h-3v9l-3 1 .035 2.3.028 3.013.035 2.988C926 220 926 220 925 223h-3l.105 2.668.083 3.52.105 3.48c-.329 3.74-.997 5.391-3.293 8.332-2.442.608-2.442.608-5.374.583l-3.326.01-3.59-.07-3.678-.014c-3.886-.021-7.771-.078-11.657-.134-2.628-.016-5.255-.03-7.883-.043-4.792-.034-9.585-.069-14.377-.14l-2.927-.038C864 241 864 241 863 240a154.587 154.587 0 01-.12-6.764l-.003-2.168c-.002-2.415.004-4.83.01-7.246l-.001-5.173c0-4.696.006-9.392.013-14.088.006-4.902.006-9.804.008-14.706.003-9.29.011-18.58.021-27.869.011-10.573.017-21.146.022-31.719.01-21.756.028-43.511.05-65.267 4.634-2.342 8.766-2.28 13.832-2.249z" fill="#5053A1"/><path d="M161.775 179.628a4984.976 4984.976 0 0125.261.002c6.443.011 12.886.007 19.33.005 10.808 0 21.618.01 32.427.029 11.109.019 22.218.026 33.327.02 13.418-.006 26.836-.003 40.255.01 5.116.004 10.231.005 15.347.003 6.02-.002 12.038.006 18.057.022 2.208.004 4.416.005 6.624.002 3.014-.003 6.028.006 9.042.018l2.645-.011c11.681.084 11.681.084 15.743 4.072 5.075 9.568 4.593 20.596 4.54 31.117a2681.485 2681.485 0 01-.002 18.533c-.012 4.733-.008 9.465-.006 14.197 0 7.941-.01 15.882-.029 23.823a9189.95 9189.95 0 00-.018 27.494c.005 8.842 0 17.684-.011 26.526a6034.29 6034.29 0 00-.004 11.257c.002 4.42-.006 8.84-.022 13.26-.004 1.617-.005 3.234-.002 4.85.011 7.96-.123 15.43-2.279 23.143l-.562 2.812c-2.518 3.831-6.11 4.987-10.438 6.188-5.939.578-11.847.54-17.809.496a1790.286 1790.286 0 01-16.073-.029c-4.62-.029-9.241-.026-13.862-.013-3.579.007-7.157-.001-10.735-.014-1.703-.004-3.406-.004-5.108 0-20.463.025-20.463.025-27.913-5.19-3.612-5.418-3.787-11.386-3.727-17.664v-2.456c0-2.657.016-5.313.032-7.97l.008-5.552c.008-4.855.027-9.71.05-14.564.024-5.834.033-11.668.045-17.502.019-8.847.057-17.694.092-26.542h-48v249l5 1 1 4 2.117.184 2.758.253 2.742.247C244 545 244 545 246 546v2l1.875.687c2.754 1.702 2.947 3.367 4.125 6.313l2.063 1 1.937 1c.75 2.625.75 2.625 1 5l1.863.148 2.45.227c.8.07 1.6.14 2.425.21C266 563 266 563 269 565v2l7 1-.008-1.836a18169.05 18169.05 0 01-.147-44.297c-.016-7.14-.037-14.28-.071-21.421-.03-6.226-.05-12.452-.056-18.678-.004-3.295-.015-6.59-.035-9.884-.022-3.684-.025-7.368-.024-11.052l-.032-3.285c.025-6.22.66-10.913 3.373-16.547 2.375-1.875 2.375-1.875 5-3l2.16-1.053c3.658-1.22 7.104-1.234 10.916-1.222l2.421-.015c2.634-.014 5.268-.013 7.901-.01l5.511-.014c3.849-.007 7.697-.007 11.545-.002 4.922.006 9.843-.01 14.765-.034 3.793-.015 7.587-.016 11.38-.013 1.814 0 3.628-.005 5.442-.015a808.83 808.83 0 017.625.006l2.251-.023c5.87.058 10.83 1.143 15.083 5.395 3.74 8.8 3.147 18.925 3.134 28.31l.007 3.647c.005 3.314.006 6.628.004 9.942 0 3.584.006 7.168.01 10.753.009 7.01.011 14.02.012 21.031 0 5.699.003 11.397.006 17.096.009 16.17.013 32.339.012 48.509v5.278c0 14.136.01 28.273.023 42.409.015 14.528.022 29.056.02 43.583 0 8.152.003 16.303.014 24.454.01 6.936.011 13.873.005 20.809-.004 3.537-.004 7.074.005 10.612.01 3.837.003 7.674-.005 11.51l.016 3.376c-.027 5.925-.543 11.004-2.263 16.681l-.676 2.277c-.636 1.66-.636 1.66-2.324 4.723-3.515 1.476-5.096.967-8.734-.293a210.044 210.044 0 01-4.016-1.895l-2.074-.923c-4.94-2.333-4.94-2.333-6.13-5.127L358 756l-1.863-.297c-6.737-1.246-6.737-1.246-8.887-3.703l-1.25-2c-2.471-1.155-2.471-1.155-5-2l-3-2v-2l-2.375-.75C333 742 333 742 332.063 740c-1.592-2.996-3.919-3.038-7.063-4a101.46 101.46 0 01-3-3l-1.937-.375C318 732 318 732 316.313 729.687c-2.772-3.22-5.274-4.205-9.137-5.792-6.167-2.536-10.481-6.353-14.176-11.895-2.965-1.379-5.99-2.48-9.055-3.621-3.043-1.425-4.673-2.953-6.945-5.379l-2.625-1c-2.94-1.238-2.999-2.248-4.375-5a78.037 78.037 0 00-5-2l-1-2c-2.503-.605-5.009-.958-7.555-1.34-3.731-1.007-4.98-2.962-7.07-6.098-1.208-2.25-1.913-4.07-2.375-6.562l-1.812-.25c-2.188-.75-2.188-.75-3.5-2.625-2.365-2.978-5.214-3.698-8.688-5.125l-3-3-3.375-1.438c-3.492-1.505-5.742-3.135-8.625-5.562l-2.75-1.563C213 658 213 658 212 655l-2.375-.25L207 654a89.261 89.261 0 01-2-4l-2.625-1.563L200 647v-3l-3.75-.25c-4.148-.513-5.335-1.75-8.25-4.75-2.585-1.116-5.19-2.064-7.855-2.973L178 635l-1-3c-2.329-1.027-2.329-1.027-5.062-1.688-.92-.25-1.839-.502-2.786-.761L167 629v-2h-2v-2l-4-1-.187-1.875L160 620a124.97 124.97 0 00-5-2l-1-3c-3.512-1.23-3.512-1.23-7-2l-.125-1.875L146 609c-2.837-1.196-2.837-1.196-6-2a86.75 86.75 0 01-4-2v-2l-2.625-.5c-4.602-2.045-6.88-5.192-9.375-9.5-1.191-3.585-1.126-7.021-1.129-10.778l-.005-2.073c-.005-2.303-.002-4.606 0-6.91l-.007-4.99c-.006-4.58-.006-9.16-.004-13.74 0-4.936-.006-9.872-.01-14.808-.009-9.673-.011-19.345-.012-29.018 0-7.858-.003-15.717-.006-23.575-.009-22.262-.013-44.524-.012-66.787v-7.281c0-19.498-.01-38.995-.023-58.493-.015-20.002-.022-40.005-.02-60.007 0-11.237-.003-22.474-.014-33.711-.01-9.564-.011-19.129-.005-28.693.004-4.883.004-9.767-.005-14.65-.008-4.465-.006-8.93.002-13.395.002-1.62 0-3.24-.005-4.861-.007-2.193-.002-4.385.006-6.578v-3.7C123 186 123 186 125 183c11.545-4.398 24.654-3.418 36.775-3.372z" fill="#704B9D"/><path d="M468.514 179.976c14.648-.137 29.297-.165 43.945-.176a42107.58 42107.58 0 0144.468-.039c12.93-.004 25.86-.022 38.79-.05 10.042-.022 20.085-.033 30.127-.034 5.981-.001 11.962-.007 17.944-.025 5.604-.016 11.209-.018 16.813-.01 2.056.001 4.11-.003 6.166-.013a982.32 982.32 0 018.41.004l2.464-.025c4.84.042 8.195.664 12.359 3.392 3.337 3.422 3.378 6.127 3.386 10.81l.016 2.084c.014 2.316.006 4.631 0 6.947a2900.688 2900.688 0 01.035 18.83c-.001 4.963.015 9.926.03 14.888.024 9.727.032 19.453.034 29.18.002 7.905.008 15.81.017 23.715.027 22.403.04 44.806.038 67.209v7.327c-.002 19.608.027 39.215.07 58.822.042 20.124.063 40.247.06 60.37 0 11.302.008 22.603.04 33.905.027 9.623.034 19.245.014 28.868-.01 4.91-.01 9.82.016 14.73.023 4.497.019 8.992-.007 13.487-.005 1.626 0 3.252.017 4.878.14 14.663.14 14.663-5.187 20.604-2.334 1.99-4.758 3.17-7.579 4.346l-3.062 2.125C675 608 675 608 672.438 608.438c-3.493.806-5.014 3.01-7.438 5.562l-3 1-1.625 2.125c-3.258 3.944-7.127 7.03-11.375 9.875h-2v2c-5.75 3-5.75 3-8 3l-1 3c-1.926 1.027-1.926 1.027-4.312 1.938-2.913 1.197-4.562 1.936-6.813 4.187C625 643 625 643 621.438 644c-3.778 1.099-4.391 1.828-6.438 5l-3 1-.875 2c-1.125 2-1.125 2-3.75 2.75L605 655l-.187 2.375L604 660c-2.375 1.063-2.375 1.063-5 2l-1.25 2c-2.484 2.84-5.052 2.878-8.691 3.41-2.439.459-2.439.459-4.059 3.59-1.805.773-1.805.773-3.875 1.375-4.007 1.355-5.62 3.191-8.125 6.625h-3l-.687 2.313c-1.62 3.317-3.065 4.025-6.313 5.687l-2.5 1.563C558 690 558 690 555.438 690.938c-2.833 1.234-4.303 2.858-6.438 5.062l-4 2-1.937 1.938c-2.196 2.195-4.321 3.619-7.063 5.062h-2v2l-5 1v2l-2.812 1.813c-3.27 1.892-3.27 1.892-4.563 4.687-2.079 3.198-4.23 4.049-7.637 5.594-2.153.935-2.153.935-4.675 2.531C507 726 507 726 504.375 727c-2.411.812-2.411.812-3.75 2.563-2.545 2.251-5.336 2.127-8.625 2.437l-.25 1.875c-.75 2.125-.75 2.125-2.5 3.063L487 738a280.711 280.711 0 00-5 5c-3.934 3.762-6.537 6.09-12 7l-1.25 1.875c-2.427 2.947-5.062 3.313-8.691 4.219-2.64 1.162-2.844 2.372-4.059 4.906-1.77.941-1.77.941-3.812 1.563-2.672.872-4.481 1.628-6.875 3.187C443 767 443 767 440.375 767c-3.882-1.634-4.765-4.664-6.441-8.334-1.005-2.87-1.187-5.034-1.191-8.066l-.02-3.265.01-3.569-.014-3.805c-.012-3.483-.012-6.966-.01-10.449 0-3.757-.01-7.515-.02-11.272-.016-7.361-.022-14.722-.023-22.083-.001-5.984-.005-11.969-.012-17.953a45193.966 45193.966 0 01-.025-53.679v-2.775c.001-14.84-.018-29.682-.046-44.522-.029-15.241-.042-30.482-.04-45.722 0-8.556-.006-17.111-.027-25.667-.018-7.285-.023-14.57-.009-21.855.006-3.716.007-7.431-.01-11.147-.02-4.032-.007-8.063.009-12.095l-.032-3.542c.056-6.62.584-12.652 4.526-18.2 4.965-3.24 10.519-3.44 16.293-3.404l2.383-.02a829.05 829.05 0 017.726-.01c1.806-.004 3.611-.01 5.417-.015 3.775-.01 7.55-.007 11.324.003 4.82.011 9.639-.009 14.458-.038 3.726-.018 7.452-.018 11.178-.012 1.776 0 3.552-.006 5.328-.019 19.95-.12 19.95-.12 26.893 6.39 2.845 6.046 2.17 13.198 2.205 19.73l.03 3.52c.032 3.83.057 7.661.081 11.492l.063 7.978c.05 6.28.095 12.559.138 18.838.05 7.15.105 14.302.16 21.453.114 14.705.22 29.41.323 44.114 5.56-2.185 5.56-2.185 10-6 2.709-1.354 5.01-1.065 8-1l.148-2.18c1.147-3.798 3.473-5.567 6.477-7.945.51-.43 1.018-.859 1.543-1.3 4.84-3.944 9.43-6.575 15.832-6.575l1-4 4-1V290l-48-1 .105 18.566c.016 3.888.03 7.775.041 11.663.018 6.166.04 12.333.08 18.5.033 4.973.05 9.946.059 14.92.005 1.894.016 3.79.032 5.684.022 2.66.025 5.318.024 7.978l.032 2.36c-.029 5.157-.914 8.765-3.373 13.329-2.812 1.813-2.812 1.813-6 3l-2.72 1.056c-3.712 1.068-7.135 1.24-10.963 1.235l-2.259.02c-2.452.019-4.903.023-7.355.025l-5.149.02c-3.594.012-7.188.016-10.783.015-4.584 0-9.167.027-13.75.061-3.546.022-7.09.026-10.636.025a658.36 658.36 0 00-5.066.027c-18.25.152-18.25.152-25.319-4.484-3.591-5.387-4.25-10.089-4.26-16.494-.005-.734-.008-1.468-.012-2.224-.01-2.448-.007-4.896-.003-7.344-.004-1.76-.01-3.52-.015-5.279-.014-4.773-.014-9.545-.012-14.318.001-3.989-.003-7.977-.008-11.965-.011-9.413-.012-18.826-.006-28.239.006-9.7-.006-19.399-.027-29.099-.018-8.336-.024-16.673-.02-25.01.001-4.974-.001-9.95-.015-14.925a2565.3 2565.3 0 01.002-14.043 800.6 800.6 0 00-.009-5.14c-.082-18.31-.082-18.31 4.94-26.436 3.991-2.422 7.98-2.161 12.569-2.221l3.388-.086c5-.109 10-.153 15.002-.201z" fill="#AD3996"/><path d="M2157.618 261.873l3.62-.009 3.992.007 4.189-.006c3.797-.004 7.594-.002 11.392 0 3.968.003 7.936 0 11.905 0 6.664-.003 13.33 0 19.994.005 7.713.005 15.426.003 23.138-.002 6.614-.005 13.228-.005 19.842-.003 3.954.002 7.908.002 11.862-.001 3.716-.003 7.433-.001 11.15.005 2.02.002 4.04-.001 6.06-.005l3.62.009 3.16.001C2294 262 2294 262 2296 263v287h2c1.802 5.42 2.306 10.199 2.344 15.89l.044 2.505c.062 3.51.102 7.018.144 10.528.033 2.573.079 5.145.124 7.718l.016 2.405c.07 3.83.154 5.693 2.328 8.954.227 1.993.227 1.993.195 4.23l-.02 2.432-.05 2.525-.027 2.561A931 931 0 012303 616l3 1c1.095 3.285 1.1 5.737 1.063 9.187l-.028 3.293L2307 632h3v7l3 1 1 6 3 1v5l4 2v2l3 1v3h3v3l4 1v2h3l1 4h5l1 3 3.313.375C2348 674 2348 674 2351 676c2.576.367 5.125.504 7.723.656C2361 677 2361 677 2363 679c2.432.245 4.759.373 7.195.414l2.144.059a1115 1115 0 006.786.152c1.533.038 3.065.077 4.598.117 3.759.096 7.518.18 11.277.258v-2c2.241-1.12 3.763-1.197 6.25-1.375 4.158-.407 7.052-1.647 10.75-3.625h4l1-3h6v-3l6-1 1-3h4v-2h2v-2h4v-3h3v-3c4.222-3 4.222-3 7-3l.688-1.688c1.686-2.97 3.842-4.957 6.312-7.312l2.688-2.813C2462 636 2462 636 2464 636l2-4h2l1-4h2v-3l2-1a134.078 134.078 0 003-6h2l1-4h2l1-8 3-1-.07-2.117-.055-2.758-.07-2.742C2485 595 2485 595 2487 593c.306-1.906.306-1.906.262-4.12l.022-2.63-.006-2.906c.01-1.521.01-1.521.018-3.074.017-3.42.02-6.842.023-10.263l.03-7.33c.022-5.273.038-10.545.048-15.817.014-7.623.04-15.246.068-22.868.045-12.367.082-24.733.113-37.1.03-12.015.065-24.03.105-36.045l.007-2.243.037-11.14c.104-30.822.193-61.643.273-92.464l-3-1v-16h-3l-1-7-3-1c-2.04-2.903-3.353-5.508-4-9l-6-1v-3h-4v-3l-9-1-1-3h-10l-1-3-3.312.187c-3.688-.187-3.688-.187-5.4-1.298-1.894-2.778-1.626-4.971-1.581-8.307l.03-3.799c.024-1.31.05-2.62.076-3.97A1232.751 1232.751 0 012433 266h3l1-4c18.463-.047 36.925-.082 55.388-.104 8.572-.01 17.145-.024 25.717-.047 7.47-.02 14.94-.033 22.41-.037 3.957-.003 7.913-.009 11.87-.023 3.722-.014 7.444-.018 11.167-.015 2.02-.001 4.042-.012 6.063-.023l3.633.008 3.165-.005C2579 262 2579 262 2582 264c.376 2.778.376 2.778.376 6.407l.013 2.025c.011 2.261 0 4.522-.01 6.784a2805.008 2805.008 0 01.01 18.367c-.007 4.839.003 9.678.012 14.517.013 8.39.015 16.781.01 25.172-.007 12.135.005 24.27.023 36.405a57368.051 57368.051 0 01.056 62.645 428804.937 428804.937 0 01.023 57.368c.008 19.614.029 39.227.058 58.841.017 12.109.023 24.218.016 36.327-.004 8.292.003 16.585.017 24.878.008 4.79.011 9.58.001 14.37-.009 4.38-.004 8.76.012 13.14.003 1.59 0 3.18-.007 4.769-.009 2.15 0 4.301.014 6.453v3.629c.42 3.237.98 3.861 3.376 5.903.293 2.918.293 2.918.188 6.187l-.083 3.293L2586 674l3 1c.73 1.977 1.394 3.98 2 6l2 3v3h3v3l1.625.25c3.248 1.026 5.663 2.716 8.375 4.75v2l3.375.375C2613 698 2613 698 2615 700c2.323.366 4.66.644 7 .875 6.353.727 12.427 1.828 18 5.125 2.422 3.633 2.233 5.318 2.195 9.637l-.02 3.935-.05 4.115c-.01 1.384-.02 2.767-.027 4.15-.024 3.388-.057 6.776-.098 10.163-3.979 2.082-6.605 3.366-11.125 3.125-3.347-.187-3.347-.187-6.623.34-9.526 2.262-20.061 1.693-29.807 1.781l-7.547.1c-3.903.047-7.807.092-11.71.13-3.81.04-7.62.092-11.43.145l-3.52.026c-5.353.08-10.05.42-15.183 1.906-4.498.979-9.158.709-13.739.677h-3.321c-2.302-.004-4.604-.012-6.906-.024-3.54-.019-7.079-.02-10.618-.02a7509.7 7509.7 0 01-6.717-.018l-3.223-.003-2.955-.02-2.611-.011C2493 746 2493 746 2492 745a171.31 171.31 0 01-.205-7.365l-.03-2.336c-.032-2.56-.057-5.119-.081-7.678l-.063-5.31c-.056-4.666-.105-9.334-.153-14.001-.05-4.759-.106-9.518-.161-14.277-.108-9.344-.21-18.689-.307-28.033h-3l-1 4h-2l-1 3c-1.937 2.187-1.937 2.187-4 4h-2l-1 3h-3l-1 4h-2l-1 3h-3v3c-1.812 2.187-1.812 2.187-4 4h-3v3h-3l-1 4h-3l-1 3-6 1v3h-3v3c-6.5 4-6.5 4-11 4v3c-3.65 2.903-5.259 4-10 4l-1 3c-3.238 1.871-6.32 3.292-10 4v2l-2.152.84-2.785 1.097-2.778 1.09c-2.21.773-2.21.773-3.285 1.973-2 .04-4 .043-6 0l-1 3c-2.25.914-2.25.914-5 1.625-3.284.662-3.284.662-6 2.375-2.32.281-4.639.448-6.969.621L2373 744l-1 2c-2.146.395-2.146.395-4.953.598l-3.067.24-3.23.224c-2.089.156-4.177.313-6.266.473l-2.82.2c-2.609.26-5.097.75-7.664 1.265-2.54.092-5.083.13-7.625.125l-3.977.008C2329 749 2329 749 2326 748a159.571 159.571 0 00-5.762-.535l-3.388-.264-3.537-.264-3.573-.275A3629.58 3629.58 0 002301 746l-1-3-1.73.176c-13.526.752-31.688-8.074-42.082-16.676C2255 725 2255 725 2255 722l-6-1-1-3c-2-1.209-2-1.209-4-2v-2h-3v-3h-3l-1-6-3-1v-3l-1.812-.188C2230 700 2230 700 2228.25 697.75c-1.305-2.871-1.516-4.641-1.25-7.75h-3l-1-7h-3v-7l-3-1c-1.158-3.473-1.069-6.36-1-10l-3-1-.113-2.047-.2-2.703-.175-2.672c-.313-2.629-.313-2.629-2.02-4.43-2.138-3.078-1.982-6.15-2.054-9.773.138-5.166.138-5.166-2.438-9.375-.303-2.917-.303-2.917-.379-6.617l-.051-1.98a906.562 906.562 0 01-.132-6.278c-.045-2.085-.091-4.17-.143-6.256-.047-1.897-.084-3.795-.121-5.693-.142-2.591-.532-4.692-1.174-7.176l1-1c.099-1.977.13-3.958.125-5.938l.008-3.277c.057-2.742.057-2.742-1.133-4.785a113.11 113.11 0 01-.125-5.875l-.008-3.18c.133-2.945.133-2.945.703-5.18.65-1.903.65-1.903-.57-4.14-1.248-3.276-.84-5.267 0-8.625l1-1c.127-2.472.185-4.903.188-7.375l.037-2.078c.01-3.74-.098-5.357-2.225-8.547-.259-2.863-.259-2.863-.266-6.313l-.007-3.757.023-3.93-.023-3.93.007-3.758.007-3.449C2203 510 2203 510 2205 507c.376-3.757.164-4.754-2-8-.333-6.333-.333-6.333 1-9h2a591.519 591.519 0 00-.375-5.813l-.21-3.269c-.227-3.104-.227-3.104-2.415-5.918-.254-2.049-.254-2.049-.259-4.424l-.019-2.7.012-2.907-.005-2.993c-.002-2.088.002-4.176.01-6.264.011-3.2 0-6.399-.012-9.599 0-2.027.003-4.054.007-6.082l-.012-2.907.02-2.7c0-.784.002-1.568.004-2.375C2203 430 2203 430 2205 427c.631-6.435.123-11.914-2-18 .536-6.536.536-6.536 2-8 .367-4.527.432-8.754-1.062-13.063-1.145-3.585-.691-6.098-.168-9.769.306-2.88-.144-5.352-.77-8.168-.849-4.37-1.117-8.48-1.098-12.93l.01-3.906.026-4.039A3763.815 3763.815 0 012202 335l-3.001-1-.586-6.152L2198 326l-2-1a108.817 108.817 0 01-1-7l-3-1v-3l-3-1v-2l-4-1v-3h-6l-1-3-9-1-1-3h-9l-1-3-3.437.062C2151 297 2151 297 2150 296a168.29 168.29 0 01-.098-7.316l.005-2.216c.005-2.343.018-4.687.03-7.03.006-1.586.01-3.171.014-4.756.011-3.894.028-7.788.049-11.682 2.653-1.326 4.646-1.126 7.618-1.127z" fill="#A73A97"/><path d="M140.871 48.871l2.833-.005c3.168-.005 6.336-.002 9.504 0l6.84-.007c6.292-.006 12.585-.006 18.878-.004 6.08 0 12.161-.005 18.242-.009 13.98-.01 27.961-.012 41.942-.013a128154.103 128154.103 0 0044.028-.01 214191.45 214191.45 0 0180.061-.008h7.501c25.947 0 51.894-.007 77.841-.02a156375.798 156375.798 0 0196.7-.024h2.317c12.32 0 24.639-.006 36.958-.015 12.374-.008 24.747-.01 37.12-.003 6.71.004 13.417.004 20.125-.005 6.134-.008 12.268-.006 18.401.002 2.227.002 4.453 0 6.679-.005 3.012-.007 6.024-.002 9.036.006l2.655-.015 2.428.014h2.087c2.377.304 3.925.98 5.953 2.25 2.472 3.708 2.27 5.624 2.306 10.054l.026 2.164a956.3 956.3 0 01.04 7.087l.026 4.928c.017 3.445.025 6.89.028 10.335.005 4.41.043 8.82.088 13.232.03 3.393.037 6.787.038 10.181.004 1.626.017 3.252.038 4.878.027 2.276.022 4.551.01 6.828l.015 3.923c-.805 4.44-2.044 5.657-5.615 8.39-3.091.724-6.105.671-9.269.63l-2.852.021c-3.173.019-6.344.001-9.517-.016-2.29.006-4.58.014-6.87.024-6.307.02-12.613.01-18.92-.005-6.1-.013-12.198.003-18.297.015-13.246.027-26.493.024-39.74.01-11.591-.013-23.184-.016-34.776-.01l-2.328.001-9.357.005c-29.268.015-58.537.001-87.806-.025-26.015-.024-52.03-.022-78.044.002a60647.009 60647.009 0 01-96.983.017l-2.323-.001a21987.7 21987.7 0 00-34.758.013c-13.172.015-26.343.011-39.514-.016a4678.07 4678.07 0 00-20.174-.002c-6.15.015-12.299.007-18.449-.02-2.23-.005-4.461-.002-6.692.01-3.021.015-6.04 0-9.062-.024l-2.654.036c-4.345-.068-6.097-.269-9.655-2.993-2.566-3.498-2.588-5.652-2.591-9.97l-.022-2.169c-.017-2.357.003-4.712.024-7.068 0-1.643-.003-3.285-.007-4.927-.003-3.438.012-6.874.04-10.312.033-4.404.027-8.807.008-13.211-.01-3.39-.001-6.78.014-10.169.005-1.624.005-3.248-.002-4.871-.005-2.27.015-4.538.043-6.807l.018-3.911c.6-3.796 1.517-4.943 4.515-7.257 3.365-1.682 7.171-1.137 10.871-1.129z" fill="#8F429A"/><path d="M382 448h1c.91 6.961 1.142 13.756 1.127 20.772l.005 3.508c.003 3.191.002 6.382-.001 9.573-.003 3.45.001 6.9.004 10.35.004 6.749.003 13.498 0 20.248a26966.839 26966.839 0 000 23.594c.003 14.883 0 29.765-.006 44.648-.004 12.762-.003 25.525.001 38.287a78349.182 78349.182 0 01.004 49.244v2.359c-.002 5.479 0 10.957.002 16.436.003 6.678.002 13.356-.003 20.035a5859.69 5859.69 0 000 10.216 5851.3 5851.3 0 01-.006 11.085l.007 3.247c-.015 5.562-.307 10.897-1.134 16.398h-1V462l-2-1c.14-1.98.287-3.959.437-5.937l.247-3.34C381 449 381 449 382 448z" fill="#806080"/><path d="M1540 158c2 2 2 2 2.063 5.375L1542 167l.495 1.917c.59 2.431.585 4.54.529 7.042l-.06 3.077-.08 3.411c-.05 2.543-.098 5.086-.146 7.63l-.083 4.204c-1.015 51.892-.807 103.798-.784 155.698.004 9.504.003 19.009-.001 28.513-.006 11.977-.008 23.954-.005 35.93.002 6.285.002 12.569-.001 18.853-.003 5.847-.001 11.695.005 17.542 0 2.141 0 4.282-.002 6.423-.002 2.916.001 5.83.006 8.746l-.007 2.57c.013 3.968.231 7.56 1.134 11.444.091 2.374.13 4.75.125 7.125l.008 3.695C1543 494 1543 494 1542 497a98.431 98.431 0 00-.158 5.144l-.03 3.225-.017 3.538-.03 3.725c-.027 3.372-.048 6.744-.068 10.115-.022 3.524-.05 7.047-.076 10.57-.05 6.673-.095 13.345-.138 20.017-.05 7.596-.105 15.192-.16 22.788-.114 15.626-.22 31.252-.323 46.878h-1V158z" fill="#6C4995"/><path d="M510.132 179.899c5.707.006 11.414.006 17.12.008 10.766.003 21.532.01 32.297.021 12.274.011 24.548.017 36.821.022 25.21.01 50.42.028 75.63.05v1l-2.982.031c-12.61.133-25.22.269-37.83.407l-3.068.033c-25.937.283-51.873.611-77.808 1.092-16.125.294-32.246.538-48.375.562l-2.332.008c-7.918.021-15.742-.097-23.605-1.133v2l-2.25-.562c-2.608-.603-2.608-.603-4.556.029-2.738.665-5.236.645-8.053.63l-3.38-.01-3.511-.024-3.559-.014c-2.897-.012-5.794-.028-8.691-.049l-1-3c23.033-1.306 46.072-1.131 69.132-1.101z" fill="#971A8E"/><path d="M382 198h1l1 171h-2l-1 4c-.023-22.227-.041-44.453-.052-66.68-.005-10.32-.012-20.64-.023-30.96-.01-8.992-.017-17.986-.02-26.979 0-4.763-.003-9.526-.01-14.29a7273.84 7273.84 0 01-.008-13.444c0-1.646-.002-3.293-.006-4.939-.005-2.245-.004-4.49-.001-6.735l-.003-3.81c.101-2.598.348-4.7 1.123-7.163z" fill="#886588"/><path d="M381 462h1v286h2v3h-2l-1 3c-.919-6.984-1.127-13.787-1.082-20.826l.01-3.525c.01-3.207.024-6.413.04-9.62.017-3.465.028-6.932.04-10.398.02-5.997.044-11.995.071-17.993.04-8.672.073-17.343.105-26.015.052-14.07.108-28.142.168-42.213a109934.49 109934.49 0 00.224-56.235c.135-35.059.277-70.117.424-105.175z" fill="#8E398F"/><path d="M675.821 179.943l3.246-.035 2.686-.038c4.23.244 6.992 1.84 9.888 4.818 1.844 3.136 1.655 5.453 1.547 9.062l-.083 3.547L693 200h-1a490.71 490.71 0 01-.562-4.375l-.317-2.46C691 191 691 191 692 189h-2v-2c-9.788-4.417-21.867-3.141-32.395-3.098l-3.98.005c-3.443.003-6.887.013-10.331.024-3.534.01-7.067.015-10.6.02-6.898.01-13.796.028-20.694.049v-1l-29-1v-1a232689.354 232689.354 0 0150.07-.573 69743.35 69743.35 0 0121.179-.242c5.19-.06 10.38-.115 15.57-.163 2-.02 4.001-.05 6.002-.08z" fill="#C73298"/><path d="M378 182l2 2c-.375 2.125-.375 2.125-1 4l-1.793-1.129-2.394-1.434-2.356-1.44c-3.047-1.236-4.267-.652-7.457.003-2.269.086-4.54.118-6.81.114h-2.012c-2.18 0-4.36-.008-6.541-.016l-4.553-.005c-3.983-.003-7.966-.013-11.95-.024-4.068-.01-8.137-.015-12.206-.02-7.976-.01-15.952-.028-23.928-.049v-2l2.182-.031c6.783-.098 13.566-.2 20.35-.308 3.487-.056 6.974-.109 10.461-.158 4.01-.057 8.018-.122 12.027-.187l3.797-.05 3.518-.06 3.102-.048c20.322-1.254 20.322-1.254 25.563.842z" fill="#7E46A0"/><path d="M2005 168h1v147h-1l-.013-2.21c-.103-17.726-.212-35.452-.326-53.178-.056-8.572-.11-17.144-.158-25.717-.043-7.47-.09-14.94-.14-22.41a8057.81 8057.81 0 01-.072-11.87c-.02-3.722-.044-7.444-.071-11.167-.014-2.02-.023-4.042-.032-6.063l-.03-3.633-.02-3.165c-.03-2.704-.03-2.704-1.138-5.587l2-2z" fill="#914892"/><path d="M137.545 180.861l2.412.006 2.53-.004c2.775-.002 5.55.005 8.326.012l2.862.003c21.782.024 43.552.527 65.325 1.122v1a145117.556 145117.556 0 01-41.554.573 43527.46 43527.46 0 01-17.578.242c-3.675.051-7.35.1-11.024.138-2.418.03-4.836.071-7.254.13l-2.981.056c-.83.02-1.661.042-2.517.064C134 184 134 184 131 182c1.781-1.781 4.173-1.129 6.545-1.139z" fill="#5B4DA0"/><path d="M993 115h87v1l-3.176.025c-9.859.077-19.718.165-29.577.263-5.07.05-10.138.096-15.207.134-4.89.037-9.778.083-14.667.136-1.868.019-3.737.034-5.605.045-2.61.017-5.22.046-7.83.078l-2.358.007c-4.251-.08-4.251-.08-7.58 2.312-2.125-.375-2.125-.375-4-1h3v-3z" fill="#000082"/><path d="M1159 738c10.492-.046 20.984-.082 31.476-.104 4.872-.01 9.744-.024 14.615-.047 4.701-.022 9.402-.034 14.103-.039 1.794-.003 3.588-.01 5.382-.021 2.512-.015 5.023-.017 7.534-.016l2.252-.022c3.709.015 6.489.189 9.638 2.249-1.991.381-3.993.713-6 1l-1-1a167.123 167.123 0 00-7.274-.205l-2.306-.03c-2.526-.032-5.053-.057-7.58-.081l-5.242-.063c-4.608-.056-9.216-.105-13.825-.153-4.698-.05-9.397-.106-14.095-.161-9.226-.108-18.452-.21-27.678-.307v-1z" fill="#4E4EA7"/><path d="M455.757 383.886h3.578l3.864.016 3.956.005c3.467.003 6.934.013 10.401.024 3.54.01 7.079.015 10.618.02 6.942.01 13.884.028 20.826.049v1h-51v2h-11v-2c3.178-1.06 5.418-1.12 8.757-1.114z" fill="#945094"/><path d="M378 182l2 2c-.375 2.125-.375 2.125-1 4l-1.793-1.129-2.394-1.434-2.356-1.44c-2.993-1.214-4.387-.824-7.457.003a194.46 194.46 0 01-7 0v-2l-3-1c7.15-2.383 16.022-1.791 23 1z" fill="#8D4C95"/><path d="M2979 746l-1 3-2.813-.563c-3.2-.678-3.2-.678-6.187.563-1.665.093-3.333.13-5 .133l-2.938.004-3.062-.012-3.063.012-2.937-.004-2.688-.004C2947 749 2947 749 2944 748v-2c1.896-.027 3.792-.046 5.688-.063l3.199-.035c2.837.09 5.357.449 8.113 1.098v-1c2.25-.195 4.5-.381 6.75-.563l3.797-.316c2.848-.1 4.796-.027 7.453.879z" fill="#F900CE"/><path d="M2739 32.938l2.348.013c1.884.012 3.768.03 5.652.049-3.228 2.152-4.284 2.2-8 2l-1 2-3.313-.5c-5.226-.666-10.427-.587-15.687-.5 5.774-3.85 13.251-3.139 20-3.063z" fill="#9F208F"/><path d="M1489 705h4l-1 4h-5v5h-2l1 18h-2v-23l4-1 1-3z" fill="#6C469E"/><path d="M381 350l1 4h2v15h-2l-1 4v-23z" fill="#894D89"/><path d="M1055 112h4v2l1.988-.14c2.961-.198 5.924-.373 8.887-.547l3.129-.221 2.988-.166 2.761-.175L1081 113l2 3-38-1v-1c.957-.09.957-.09 1.934-.184l2.504-.254c.823-.08 1.647-.162 2.496-.246 2.053-.105 2.053-.105 3.066-1.316z" fill="#4450A2"/><path d="M132 181h43v1h-39v2l-5-1 1-2z" fill="#4242BC"/><path d="M441 181h24c-4.25 2.125-6.809 2.376-11.5 2.625l-3.969.227c-2.508.105-5.02.148-7.531.148l-1-3z" fill="#9C539C"/><path d="M1484 70h1l.076 1.772c.116 2.66.239 5.319.362 7.978l.119 2.79.127 2.694.11 2.476c.197 2.193.609 4.174 1.206 6.29l5 1v3l-4-1v-2l-4-1V70z" fill="#6B479C"/><path d="M658 614h3c-.288 3.214-1.1 4.093-3.504 6.36-1.01.788-2.019 1.577-3.058 2.39l-3.067 2.422L649 627l-2-1c.688-2.375.688-2.375 2-5 2.375-1.125 2.375-1.125 5-2 2.285-1.4 2.285-1.4 4-3v-2z" fill="#D02AA4"/><path d="M691 588l2 2c-.135 4.875-2.612 7.687-6 11-3.313.875-3.313.875-6 1v-2l2.438-.813L686 598l1-3 1-2h2l1-5z" fill="#CC2E94"/><path d="M380 758l2 1c-1.188 3.438-1.188 3.438-3 7-3.158 1.413-4.542 1.153-7.813.063L369 765c3-2 3-2 5-2l1-2h5v-3z" fill="#844F91"/><path d="M2061 94c-1.438 2-1.438 2-4 4-3.028.354-5.965.233-9 0l-1 3-5-1 1-2c2.066-.414 2.066-.414 4.563-.625l2.503-.227L2052 97v-2c3.196-1.065 5.657-1.074 9-1z" fill="#76267E"/><path d="M2743 32h21v2l3 2h-13l3-1v-2h-14v-1z" fill="#DD15AE"/><path d="M1207 738c4.626-.05 9.253-.086 13.88-.11 1.573-.01 3.146-.024 4.72-.04 2.263-.025 4.527-.036 6.79-.045l2.125-.032c3.67 0 6.366.206 9.485 2.227-1.991.381-3.993.713-6 1l-1-1a158.022 158.022 0 00-6.66-.316l-2.014-.063a1702.9 1702.9 0 00-6.389-.183l-4.322-.131c-3.538-.108-7.076-.209-10.615-.307v-1z" fill="#493BA9"/><path d="M1014 711l3 1-.563 2.25c-.45 2.829-.152 4.048.563 6.75a194.46 194.46 0 010 7h-1l-1 5h-1c-.197-3.104-.38-6.208-.563-9.313l-.17-2.67-.146-2.568-.143-2.364C1013 714 1013 714 1014 711z" fill="#3636C8"/><path d="M2452.563 261.75l2.076-.023c5.108.02 5.108.02 7.361 2.273-4.345 1.139-8.386.931-12.813.563l-2.1-.159A870.609 870.609 0 012442 264c3.637-2.425 6.362-2.298 10.563-2.25z" fill="#9E218E"/><path d="M2316 746h18v1l10 1v1c-9.596.239-18.531-.212-28-2v-1z" fill="#C304BD"/><path d="M332 738h4v4l2.375.438C341 743 341 743 343 744v5c-2.5-1.375-2.5-1.375-5-3v-2l-2.438-.75C333 742 333 742 332.188 739.875L332 738z" fill="#9F41AA"/><path d="M1525 111c1.77.164 1.77.164 4 1 1.887 2.398 1.887 2.398 3.688 5.375l1.824 2.96C1536 123 1536 123 1537 126l-2 1-2-1-.813-2.75c-1.384-3.79-3.33-5.467-6.187-8.25-.813-2.313-.813-2.313-1-4z" fill="#493195"/><path d="M2154 262l31 1v1h-26l-1 2-4-1v-3z" fill="#994B99"/><path d="M942 164h1v6l-3 1v5l-4 2c.665-4.389 2.188-7.981 4-12h2v-2z" fill="#2D3D92"/><path d="M1682 704c6.223-.244 9.846.564 15 4v2h2l-1 2h-3l-1-4-2.625-.375c-3.27-.606-6.248-1.508-9.375-2.625v-1z" fill="#462397"/><path d="M3072 532l2 1-1 5 2 1-.938 2.375c-1.325 4.524-1.71 8.94-2.062 13.625h-1c-.029-3.27-.047-6.542-.063-9.813l-.025-2.814-.01-2.705-.016-2.491C3071 535 3071 535 3072 532z" fill="#F227A6"/><path d="M382 448h1c.904 6.326.904 11.674 0 18l-.375-1.938L382 462l-2-1c.14-1.98.287-3.959.438-5.938.08-1.102.162-2.204.246-3.34C381 449 381 449 382 448z" fill="#855F86"/><path d="M362 436c6.435-.35 11.352-.295 17 3 1.438 2.188 1.438 2.188 2 4-5.642-1.667-5.642-1.667-7.813-3.688-3.57-2.142-7.22-1.015-11.187-.312v-3z" fill="#9B4B9E"/><path d="M1696 89h2c1 3 1 3 .125 5.625-2.872 3.21-5.1 3.086-9.262 3.332L1687 98v-2c2.709-1.354 5.01-1.065 8-1l1-6z" fill="#61358C"/><path d="M2921 697c5.738-.204 10.605-.271 16 2l-1 2c-5.625.25-5.625.25-9-2-1.99-.39-3.99-.732-6-1v-1z" fill="#C11475"/><path d="M3048 645l2 1-5 11h-2v2h-2v-3h2l1-4h2l-.125-2.375C3046 647 3046 647 3048 645z" fill="#CE1675"/><path d="M2581 263l-2 2-2-1-1 2-1-1a73.608 73.608 0 00-4.473-.316l-2.724-.127-2.865-.12-2.877-.13c-2.354-.107-4.707-.209-7.061-.307v-1c3.208-.198 6.416-.382 9.625-.563l2.738-.17c4.718-.258 8.986-.31 13.637.733z" fill="#BA2996"/><path d="M1847 69c3 3 3 3 3.293 5.48l-.105 2.707-.083 2.731L1850 82l-3 1V69z" fill="#974EA0"/><path d="M2979 746l-1 3-17-2v-1c2.25-.195 4.5-.381 6.75-.563l3.797-.316c2.848-.1 4.796-.027 7.453.879z" fill="#E210B5"/><path d="M2535 742l1 2c2.322.407 4.657.744 7 1v1h-15v-3c4.75-1 4.75-1 7-1z" fill="#B424AB"/><path d="M1021 705l4 1-2.875 2.125c-3.124 2.571-4.199 4.892-5.125 8.875l-2-1 .5-1.813c.611-2.3.611-2.3.5-5.187l1.938-.875c2.214-.953 2.214-.953 3.062-3.125z" fill="#334099"/><path d="M2631 704c7.474.49 7.474.49 10 2.938 1 2.062 1 2.062 1 4.062-4.75-.704-7.705-3.705-11-7z" fill="#A81987"/><path d="M1541 632h2c.2 3.716.152 4.772-2 8l2 1-1 3a298.87 298.87 0 00-1 6h-1c-.027-2.813-.047-5.625-.063-8.438l-.025-2.431c-.009-2.044.036-4.088.088-6.131l1-1z" fill="#6B4B9D"/><path d="M371 181c6.75.75 6.75.75 9 3l-1 4-8-4v-3z" fill="#9D42A9"/><path d="M1696 66c1.977 1.152 1.977 1.152 4 3 .46 2.629.46 2.629.375 5.563l-.04 2.94C1700 80 1700 80 1698 82V70h-2v-4z" fill="#492DB8"/><path d="M643 626l4 1v2c-5.75 3-5.75 3-8 3l-1 3-2-4 2.938-.813L642 629l1-3z" fill="#C528A6"/><path d="M2615 701c1.75-.027 3.5-.046 5.25-.063l2.953-.035c2.455.086 4.459.39 6.797 1.098v2c-5.713 1.611-9.687.09-15-2v-1z" fill="#A31984"/><path d="M1066 684h3c-.188 1.813-.188 1.813-1 4a99.185 99.185 0 01-5 3l-2 3h-2c0-3 0-3 1.813-5.188C1063 687 1063 687 1066 687v-3z" fill="#313990"/><path d="M2006 660c2 1.375 2 1.375 4 4 .358 3.358.231 6.635 0 10-2.682-3.077-3.42-5.197-3.688-9.25l-.199-2.703L2006 660z" fill="#923896"/><path d="M1697 711l2 1v13l-2-1c-.45-2.434-.45-2.434-.688-5.438l-.261-2.996C1696 713 1696 713 1697 711z" fill="#72498C"/><path d="M1905 633l2 1c-.67 8.17-.67 8.17-4 11a364.73 364.73 0 01-.125-4.875l-.07-2.742C1903 635 1903 635 1905 633z" fill="#AF46B1"/><path d="M126 591c3.095 1.548 4.252 4.086 6 7v3c-3.75-1.25-4.866-2.723-7-6 .25-2.313.25-2.313 1-4z" fill="#4544B5"/><path d="M2203 350h1c.339 1.415.67 2.832 1 4.25l.563 2.39C2206 359 2206 359 2206 363h-3c-.194-1.979-.38-3.958-.563-5.938l-.316-3.34L2202 351l1-1z" fill="#943594"/><path d="M2703 70c5.75-.125 5.75-.125 8 1v2l4 1c-8.571.143-8.571.143-12-1v-3z" fill="#971778"/><path d="M1484 64h8l-6 7-2-1v-6z" fill="#674D9B"/><path d="M2542.723 741.902l3.34.035 3.347.028 2.59.035-1 2c-2.215.484-2.215.484-4.938.75l-2.714.297C2541 745 2541 745 2539 743c1-1 1-1 3.723-1.098z" fill="#8A1E78"/><path d="M3137 653l3 2-1 3h-2l-.313 1.938L3136 662l-3 1c.565-3.958 1.809-6.666 4-10z" fill="#E41F92"/><path d="M1484 732l3 1 1 5h5v1h-9v-7z" fill="#664D9B"/><path d="M2024 694c4.194.671 7.403 2.856 11 5l-1 2-4-1v-2l-5-1-1-3z" fill="#882798"/><path d="M1522 693v3c-1.68 1.387-1.68 1.387-3.875 2.688-.72.436-1.439.873-2.18 1.324C1514 701 1514 701 1512 701v-3l7-2v-2l3-1z" fill="#4B2D97"/><path d="M1529 686h1c.25 2.313.25 2.313 0 5-1.813 1.875-1.813 1.875-4 3l-3-1v-2h3l.938-1.938C1528 687 1528 687 1529 686z" fill="#4F3296"/><path d="M2492 663c2.063.438 2.063.438 4 1 .125 3.375.125 3.375 0 7l-2 2c-2.133-3.199-2.59-5.23-3-9l1-1z" fill="#C72CB4"/><path d="M1541 617h1c1 5.331 1.015 9.65 0 15l-2 1c-.097-5.447-.129-10.639 1-16z" fill="#764FA3"/><path d="M3072 480c2 2 2 2 2.125 5.125L3074 488h-2v7h-1c-.027-2.125-.046-4.25-.063-6.375l-.035-3.586C3071 482 3071 482 3072 480z" fill="#E717AB"/><path d="M1489 705h4l-1 4h-6l-2 4 1-5h3l1-3z" fill="#483487"/><path d="M381 374l2 2c-1.585 4.756-1.585 4.756-3 7-3.188 1.438-3.188 1.438-6 2v-2l1.875-.188c2.369-.63 2.369-.63 3.313-3.187L380 377l1-3z" fill="#90509A"/><path d="M1679 98l4 2-2.117.84-2.758 1.097-2.742 1.09c-2.344.922-2.344.922-4.383 1.973v-2l-2-1c1-1 1-1 2.848-1.098L1678 101l1-3z" fill="#4C268B"/><path d="M993 115h16v1l-2.773.148-3.602.227-3.586.21c-3.145.117-3.145.117-5.039 2.415-2.125-.375-2.125-.375-4-1h3v-3z" fill="#1F328D"/><path d="M445 763l-2 4-5-1 1-3c2.49-1.245 3.41-.777 6 0z" fill="#A835AA"/><path d="M2060 733l3 1 1 7c-1.938-.75-1.938-.75-4-2-.813-2-.813-2-1-4l1-2z" fill="#BC2BC2"/><path d="M1039.188 700.938L1043 701l-2 1v2c-3.375.125-3.375.125-7 0l-2-2c2.75-.917 4.36-1.109 7.188-1.063z" fill="#2D3A8A"/><path d="M3010.563 686.938L3013 687c-3.523 4.08-7.83 5.114-13 6v-2l3.438-1.438c5.917-2.595 5.917-2.595 7.124-2.625z" fill="#CC1180"/><path d="M3171 555c1.467 3.815.433 6.29-1 10l-2-1v-7h2l1-2z" fill="#EA1EB5"/><path d="M3174 465h1c.103 5.126.036 9.95-1 15-1.873-3.16-2.348-5.341-2-9a100.38 100.38 0 012-6z" fill="#E720A1"/><path d="M935 178h1v9h-4l3-9z" fill="#334392"/><path d="M127.563 182.938L130 183l-1 4-5 1-1 3c1.015-7.976 1.015-7.976 4.563-8.063z" fill="#4444B9"/><path d="M1326 180h2l1 4h2v5c-1.938-.563-1.938-.563-4-2-.75-3.625-.75-3.625-1-7z" fill="#3B328D"/><path d="M1643 139h1c.08 1.79.14 3.583.188 5.375l.105 3.023L1644 150l-3 2c.142-1.417.289-2.834.438-4.25.08-.789.162-1.578.246-2.39.292-2.184.737-4.237 1.316-6.36z" fill="#6F459A"/><path d="M2691 65h2v2l2.313.375C2698 68 2698 68 2701 70c-7.75.125-7.75.125-10-1v-4z" fill="#A7207E"/><path d="M2492 739l2 1v1h2v2h2v3c-1.666.043-3.334.04-5 0-1-1-1-1-1.063-4.063L2492 739z" fill="#B2299F"/><path d="M2589 680c2 1.813 2 1.813 4 4v3h3v2l-4-1-1-4h-3l1-4z" fill="#961E77"/><path d="M1537 663h3v6l-4 1 1-7z" fill="#48319E"/><path d="M1902 646l1 3h3v3h-2l1 3-2 2c-1.283-3.85-1.066-6.947-1-11z" fill="#B12DBC"/><path d="M3163 590l2 1-1 7h-3v-6h2v-2z" fill="#E91CAE"/><path d="M691 588l2 2c-.178 3.383-.788 4.763-3.063 7.313L688 599v-6h2l1-5z" fill="#DB2391"/><path d="M277 375h2v3h3l1 6c-2.493-.997-3.775-1.65-5.25-3.938C277 378 277 378 277 375z" fill="#5C3FA6"/><path d="M922 228v8h-3v-7c2-1 2-1 3-1z" fill="#3D4FAE"/><path d="M1664 105l1 3-1.938.313L1661 109l-1 3-3 1 1-5 6-1v-2z" fill="#472783"/><path d="M380 758l2 1c-1.188 3.438-1.188 3.438-3 7-2.688.938-2.688.938-5 1l3-1 1-5h2v-3z" fill="#BA31BF"/><path d="M2601 693l5 2v2h5c-1.625 1.188-1.625 1.188-4 2-3.25-1.375-3.25-1.375-6-3v-3z" fill="#A0177F"/><path d="M3022 677h3c-.25 1.875-.25 1.875-1 4-2.147 1.385-3.439 2-6 2l1-3h3v-3z" fill="#D01983"/><path d="M571 548l1 3h-3l-1 4-5 1c4.625-5.75 4.625-5.75 8-8z" fill="#B627AA"/><path d="M1076 663h2l-2 11h-3l1-4h2v-7z" fill="#3D4095"/><path d="M2471 625l3 1c-1.049 2.622-1.65 3.794-4.125 5.25L2468 632l1-4h2v-3z" fill="#9B2088"/><path d="M139 603l3 1v2l4 1v1c-2.25.25-2.25.25-5 0-2.313-2-2.313-2-4-4l2-1z" fill="#5E5D9D"/><path d="M2299 593c2.063 2.25 2.063 2.25 4 5-.25 2.313-.25 2.313-1 4h-2l-1-9z" fill="#A3289C"/><path d="M3168 425l3 2c-.75 5.75-.75 5.75-3 8v-10z" fill="#E51FA0"/><path d="M2043 101v1a502.64 502.64 0 01-6 2l-2.25.75-1.75.25-2-2c3.9-2.6 7.474-2.15 12-2z" fill="#721C7C"/><path d="M349 750c2.625.938 2.625.938 5 2v3a101.168 101.168 0 01-6-2l-1-2 2-1z" fill="#A33BAF"/><path d="M1847 728h2l1 7h-3v-7z" fill="#984CA2"/><path d="M1696 722c1.52 1.238 1.52 1.238 3 3 .101 2.785-.501 5.235-1 8-2-2-2-2-2.195-4.164l.07-2.461.055-2.477.07-1.898z" fill="#704D9B"/><path d="M2035 701c6.055-.195 6.055-.195 8 0l2 2-1 2-9-3v-1z" fill="#742A7E"/><path d="M2353 677h8l1 3c-3.199.089-5.927-.09-9-1v-2z" fill="#96238A"/><path d="M2583 662h3v6l-4-2 1-4z" fill="#B62B9D"/><path d="M161 620c2.438.75 2.438.75 5 2 .813 2.125.813 2.125 1 4l-2 1v-2l-3-1c-.688-2.063-.688-2.063-1-4z" fill="#4B48B3"/><path d="M3151 360l3 1v9h-1c-1.316-3.62-2-6.096-2-10z" fill="#DE2894"/><path d="M3126 315h3l.375 2.938L3130 321l2 1h-3v-2h-2l-1-5z" fill="#E92BA3"/><path d="M246 287v2l2 1h-9v-2c3-1 3-1 7-1z" fill="#74648A"/><path d="M946 154l3 1-3 7-3-1v-2h2l1-5z" fill="#29389D"/><path d="M1654 112l3 1a125.024 125.024 0 01-4 6h-2c0-4 0-4 1.5-5.75l1.5-1.25z" fill="#4C2889"/><path d="M2601 739l2 1v3h-8l3-1v-2l3-1z" fill="#9E1D76"/><path d="M1651 684l3 1 .375 2.438L1655 690l2 1h-3v-2l-3-1v-4z" fill="#4F2C7B"/><path d="M3063 609h1v6l-4 1c.75-4.75.75-4.75 3-7z" fill="#CF16A3"/><path d="M3067 580l4 2c-1.75 5.75-1.75 5.75-4 8v-10z" fill="#DD2593"/><path d="M3170 548l2 2c-.033 2.729-.564 5.297-1 8l-2-1 1-9z" fill="#E62892"/><path d="M3173 490l2 1v12h-1a987.023 987.023 0 01-1.063-5.938l-.597-3.34L3172 491l1-1z" fill="#DF2D95"/><path d="M3162 392l2 1c.594 2.649.742 5.292 1 8-3-2-3-2-3.75-5.063L3161 393l1-1z" fill="#ED21AA"/><path d="M1903 146l3 2-3 8h-1c-.125-6.625-.125-6.625 1-10z" fill="#B32BBD"/><path d="M2007 133l3 1v7l-3-2c-.188-3.125-.188-3.125 0-6z" fill="#953F9B"/><path d="M2016 115l1 4h-3v4l-3-1c2.75-5.875 2.75-5.875 5-7z" fill="#78317F"/><path d="M2051 98h-3l-1 3-5-1c1-2 1-2 2.813-2.688 2.375-.339 3.92-.04 6.187.688z" fill="#813289"/><path d="M2058 62l4 2-1 4-3-2v-4z" fill="#B631B7"/><path d="M2178.824 302.777L2184 306v1h-5l-1-3c-2.015-.733-2.015-.733-4-1 3-1 3-1 4.824-.223z" fill="#984E98"/><path d="M3018 255h10l-4 2-3 2-1-3-2-1z" fill="#ED11AA"/><path d="M953 143h1l-1 7h-3l1-5h2v-2z" fill="#2E4090"/><path d="M1503 101h9l-1 3 2 1h-4l-1-2c-2.527-.656-2.527-.656-5-1v-1z" fill="#43287D"/><path d="M2258 726h4v2h3v3c-4.75-1.875-4.75-1.875-7-3v-2z" fill="#A51DA5"/><path d="M2982.75 696.938l2.422.027L2987 697v1l-3.375.375c-3.656.272-3.656.272-5.625 2.625v-2l-4-1c2.995-.872 5.636-1.108 8.75-1.063z" fill="#C50764"/><path d="M1534 677h3l-1 4h-2l-1 3c-.043-2-.04-4 0-6l1-1z" fill="#563795"/><path d="M2402 677v2l-7 1v-2c2.463-1.231 4.28-1.072 7-1z" fill="#981986"/><path d="M2213 659h3l1 5h-4v-5z" fill="#A236A2"/><path d="M175 628l5 4-1 3-2-1v-2h-2v-4z" fill="#4F3DB9"/><path d="M146 608c3.161 1.37 3.993 1.99 6 5l-2 1-3-1-1-5z" fill="#4F4FAD"/><path d="M440 181c1.021.979 2.02 1.98 3 3v1l-7 1c1-3 1-3 4-5z" fill="#A540A6"/><path d="M1484 93l8 2v3l-4-1v-2l-4-1v-1z" fill="#382578"/><path d="M1696 89h2l1 3c-1.438 2.688-1.438 2.688-3 5l-3-1h2l1-7z" fill="#4527AD"/><path d="M2720 73c2.125.938 2.125.938 4 2v2h-5l-1-3 2-1z" fill="#B01882"/></svg>