<?xml version="1.0" standalone="no"?>
<!DOCTYPE svg PUBLIC "-//W3C//DTD SVG 20010904//EN"
 "http://www.w3.org/TR/2001/REC-SVG-20010904/DTD/svg10.dtd">
<svg version="1.0" xmlns="http://www.w3.org/2000/svg"
 width="225.000000pt" height="225.000000pt" viewBox="0 0 225.000000 225.000000"
 preserveAspectRatio="xMidYMid meet">

<g transform="translate(0.000000,225.000000) scale(0.100000,-0.100000)"
fill="#616161" stroke="#616161" stroke-width="65">
<path d="M872 2117 c-30 -32 -29 -77 3 -107 21 -20 25 -32 25 -86 l0 -62 -100
-4 c-118 -4 -139 -17 -147 -92 l-6 -46 -41 0 c-77 -1 -106 -44 -106 -155 0
-74 1 -78 34 -111 28 -28 42 -34 75 -34 l41 0 0 -44 c0 -33 6 -52 24 -73 24
-28 27 -28 158 -33 l133 -5 3 -52 3 -52 -259 -3 c-229 -3 -262 -5 -279 -20
-20 -19 -27 -54 -12 -63 5 -4 9 -12 9 -18 0 -7 -4 -6 -10 3 -25 38 -30 -25
-30 -380 0 -239 4 -360 10 -350 8 13 10 12 10 -2 0 -10 -4 -18 -10 -18 -5 0
-10 -7 -10 -15 0 -14 11 -19 35 -16 6 1 0 -7 -12 -18 -24 -20 -30 -55 -12 -67
7 -4 9 0 5 13 -4 13 0 25 11 34 15 12 16 12 10 -4 -3 -9 -2 -17 3 -17 5 0 10
21 12 47 l3 48 335 -1 c184 -1 487 -2 673 -3 l337 -1 0 -60 c0 -55 -2 -61 -25
-70 -14 -6 -284 -8 -667 -7 -561 2 -645 0 -656 -13 -10 -12 -10 -10 -2 12 6
17 6 30 0 33 -5 3 -12 -6 -16 -21 -6 -21 -2 -31 16 -46 21 -17 57 -18 689 -18
508 1 670 4 682 13 38 29 39 45 39 511 l0 455 -24 28 -24 28 -264 5 -263 5 0
50 0 50 85 2 c47 1 106 2 131 2 67 1 92 25 99 92 l5 54 49 6 c37 4 55 12 72
33 21 24 24 37 24 111 0 46 -5 95 -11 109 -12 25 -48 45 -91 50 -38 4 -48 14
-48 50 0 22 -8 40 -26 57 -22 20 -38 25 -112 29 l-87 5 -3 58 c-3 50 0 62 22
88 31 37 33 68 5 103 -29 37 -89 37 -118 0 -28 -35 -26 -66 4 -102 21 -25 25
-40 25 -91 l0 -61 -172 2 -173 3 -3 59 c-3 53 0 62 22 83 18 16 26 34 26 57 0
67 -83 101 -128 53z m69 -60 c-5 -5 -17 -7 -26 -3 -14 5 -15 9 -5 21 10 12 16
13 27 4 9 -8 10 -16 4 -22z m407 11 c-7 -19 -38 -22 -38 -4 0 10 9 16 21 16
12 0 19 -5 17 -12z m179 -284 c10 -13 13 -68 13 -221 0 -190 -1 -204 -20 -223
-19 -19 -33 -20 -404 -20 -336 0 -387 2 -400 16 -14 13 -16 48 -16 226 0 187
2 214 18 231 16 19 29 19 406 15 361 -5 390 -7 403 -24z m-879 -211 c-3 -94
-4 -98 -26 -101 -13 -2 -34 4 -48 12 -22 15 -24 23 -24 86 0 80 13 100 66 100
l35 0 -3 -97z m1013 87 c16 -9 19 -22 19 -84 0 -82 -11 -100 -57 -94 -28 3
-28 4 -31 82 -2 44 -1 85 2 93 6 16 40 17 67 3z m-452 -404 c7 -8 11 -32 9
-53 l-3 -38 -95 0 -95 0 -3 39 c-5 64 -2 66 91 66 61 0 88 -4 96 -14z m-762
-151 c-7 -13 -14 -20 -15 -14 -2 5 2 16 8 24 18 21 20 18 7 -10z m1331 -17 c9
-9 12 -104 12 -365 l0 -353 -675 0 -675 0 0 346 c0 219 4 352 10 365 10 18 28
19 663 19 495 0 656 -3 665 -12z m-1349 -301 c2 -246 -4 -327 -21 -327 -7 0
-7 8 -2 23 5 12 9 137 10 277 1 261 1 270 8 270 2 0 5 -109 5 -243z m-1 -391
c0 -14 -7 -27 -16 -31 -12 -4 -13 -3 -2 10 10 12 10 15 0 15 -10 0 -10 3 0 15
16 20 18 19 18 -9z m22 -46 c0 -17 -31 -60 -44 -60 -7 0 -6 4 2 9 8 5 15 20
15 35 2 24 27 39 27 16z"/>
<path d="M875 1718 c-87 -47 -66 -186 31 -204 84 -16 146 56 123 142 -17 59
-99 93 -154 62z m83 -54 c43 -30 21 -94 -33 -94 -53 0 -73 52 -35 90 24 24 38
25 68 4z"/>
<path d="M1274 1719 c-30 -15 -54 -61 -54 -104 0 -29 8 -45 35 -72 33 -33 39
-35 82 -30 144 16 135 219 -9 216 -18 0 -42 -5 -54 -10z m94 -61 c7 -7 12 -24
12 -38 0 -64 -81 -71 -103 -9 -14 42 59 79 91 47z"/>
<path d="M733 875 c-17 -7 -36 -22 -42 -34 -6 -11 -11 -76 -11 -150 0 -123 1
-131 24 -158 l24 -28 381 -3 c430 -3 431 -3 452 66 6 22 9 85 7 150 -3 107 -4
113 -31 139 l-27 28 -373 2 c-295 1 -379 -1 -404 -12z m107 -100 l0 -55 -55 0
-55 0 0 43 c0 24 5 48 12 55 7 7 31 12 55 12 l43 0 0 -55z m168 21 c2 -15 1
-39 -2 -52 -6 -21 -12 -24 -56 -24 l-50 0 0 56 0 55 53 -3 c49 -3 52 -5 55
-32z m160 -18 l-3 -53 -50 0 -50 0 -3 53 -3 52 56 0 56 0 -3 -52z m162 -3 l0
-55 -50 0 -50 0 0 55 0 55 50 0 50 0 0 -55z m170 35 c6 -12 10 -35 8 -53 -3
-32 -3 -32 -58 -32 l-55 0 -3 39 c-5 58 2 66 52 66 35 0 48 -5 56 -20z m-660
-194 c0 -61 -13 -73 -67 -60 -36 9 -43 20 -43 72 l0 42 55 0 55 0 0 -54z m164
38 c3 -9 6 -26 6 -39 0 -47 -9 -55 -61 -55 l-49 0 0 55 0 55 49 0 c35 0 51 -4
55 -16z m164 -41 l3 -53 -55 0 -56 0 0 48 c0 27 3 52 7 56 4 4 28 6 53 4 l45
-3 3 -52z m160 0 l3 -53 -50 0 -51 0 0 48 c0 27 3 52 7 56 4 4 25 6 48 4 l40
-3 3 -52z m180 14 c4 -53 -11 -67 -69 -67 l-49 0 0 48 c0 27 2 51 5 54 3 3 29
5 58 4 l52 -1 3 -38z"/>
</g>
</svg>
