<?xml version="1.0" standalone="no"?>
<!DOCTYPE svg PUBLIC "-//W3C//DTD SVG 20010904//EN"
 "http://www.w3.org/TR/2001/REC-SVG-20010904/DTD/svg10.dtd">
<svg version="1.0" xmlns="http://www.w3.org/2000/svg"
 width="256.000000pt" height="256.000000pt" viewBox="0 0 256.000000 256.000000"
 preserveAspectRatio="xMidYMid meet">

<g transform="translate(0.000000,256.000000) scale(0.100000,-0.100000)"
fill="#000000" stroke="none">
<path d="M172 2548 c-9 -9 -12 -120 -12 -440 l0 -428 -69 0 c-46 0 -72 -5 -80
-14 -8 -9 -11 -100 -9 -311 3 -271 5 -299 21 -309 12 -8 22 -8 35 0 15 10 17
37 20 283 l2 271 348 0 347 0 74 -170 c41 -93 79 -174 85 -180 7 -7 219 -10
618 -10 l608 0 0 -580 0 -580 -1040 0 -1040 0 -2 331 c-3 303 -4 333 -21 343
-12 8 -22 8 -35 0 -16 -10 -17 -41 -20 -369 -2 -256 1 -362 9 -371 16 -20
2401 -21 2417 -1 5 6 37 297 71 646 47 481 59 637 50 647 -8 9 -34 14 -80 14
l-69 0 0 487 0 488 -132 132 c-73 73 -141 133 -150 133 -10 0 -23 -9 -30 -20
-11 -18 -24 -20 -104 -20 -78 0 -93 3 -109 20 -29 32 -75 20 -75 -20 0 -8 72
-87 160 -175 l160 -160 0 -432 0 -433 -60 0 -60 0 0 413 0 412 -209 208 -209
207 -699 0 c-530 0 -702 -3 -711 -12z m1350 -265 l3 -198 193 -3 192 -2 0
-380 0 -380 -461 2 -460 3 -78 175 -78 175 -291 3 -292 2 0 400 0 400 635 0
635 0 2 -197z m800 -1234 c3 -208 5 -233 21 -243 12 -8 22 -8 35 0 15 10 17
34 20 223 l2 211 35 0 c28 0 35 -4 35 -20 0 -25 -97 -1040 -105 -1097 l-6 -43
-60 0 -59 0 0 600 0 600 40 0 40 0 2 -231z"/>
<path d="M444 2306 c-3 -8 -4 -25 -2 -38 l3 -23 255 0 255 0 0 35 0 35 -253 3
c-213 2 -253 0 -258 -12z"/>
<path d="M444 2146 c-3 -8 -4 -25 -2 -38 3 -21 8 -23 58 -23 l55 0 0 35 0 35
-53 3 c-39 2 -54 -1 -58 -12z"/>
<path d="M604 2146 c-3 -8 -4 -25 -2 -38 3 -21 8 -23 58 -23 l55 0 0 35 0 35
-53 3 c-39 2 -54 -1 -58 -12z"/>
<path d="M764 2146 c-3 -8 -4 -25 -2 -38 3 -21 8 -23 58 -23 l55 0 0 35 0 35
-53 3 c-39 2 -54 -1 -58 -12z"/>
<path d="M444 1866 c-3 -8 -4 -25 -2 -38 l3 -23 635 0 635 0 0 35 0 35 -633 3
c-542 2 -633 0 -638 -12z"/>
<path d="M924 1706 c-3 -8 -4 -25 -2 -38 l3 -23 395 0 395 0 0 35 0 35 -393 3
c-334 2 -393 0 -398 -12z"/>
<path d="M1004 1546 c-3 -8 -4 -25 -2 -38 l3 -23 355 0 355 0 0 35 0 35 -353
3 c-299 2 -353 0 -358 -12z"/>
<path d="M1692 1148 c-33 -33 -2 -71 54 -66 43 4 65 28 48 56 -13 21 -84 28
-102 10z"/>
<path d="M1852 1148 c-33 -33 -2 -71 54 -66 43 4 65 28 48 56 -13 21 -84 28
-102 10z"/>
<path d="M2012 1148 c-33 -33 -2 -71 54 -66 43 4 65 28 48 56 -13 21 -84 28
-102 10z"/>
<path d="M11 946 c-17 -21 -10 -87 12 -100 27 -17 51 5 55 48 4 41 -11 66 -38
66 -10 0 -23 -6 -29 -14z"/>
<path d="M172 228 c-33 -33 -2 -71 54 -66 43 4 65 28 48 56 -13 21 -84 28
-102 10z"/>
<path d="M332 228 c-33 -33 -2 -71 54 -66 43 4 65 28 48 56 -13 21 -84 28
-102 10z"/>
<path d="M492 228 c-33 -33 -2 -71 54 -66 43 4 65 28 48 56 -13 21 -84 28
-102 10z"/>
</g>
</svg>
