<svg width="171" height="171" viewBox="0 0 171 171" fill="none" xmlns="http://www.w3.org/2000/svg">
<rect x="0.5" y="0.5" width="169.667" height="169.667" stroke="#616161"/>
<path d="M30 6.53337C20.8 8.93337 13.3333 14.9334 8.53333 24C6.13333 28.2667 6 32.4 6 74.6667C6 119.2 6.13333 120.8 8.93333 126C12.2667 132.267 17.4667 137.467 24 140.8C27.6 142.667 32.8 143.467 46.9333 144L65.2 144.667L74 155.067C79.0667 160.8 83.8667 165.333 85.3333 165.333C86.6667 165.333 91.7333 160.8 96.8 154.933L105.733 144.667L123.867 144C143.733 143.2 149.067 141.467 156.133 133.733C164.8 124.533 164.667 125.2 164.667 74.6667C164.667 32.4 164.533 28.2667 162.133 24C158.667 17.4667 153.6 12.2667 147.333 8.93337C142.133 6.13337 140.533 6.00003 88 5.73337C58.2667 5.60003 32.2667 6.00003 30 6.53337ZM144.133 19.0667C146.533 20.6667 150 24.1334 151.733 26.6667L154.8 31.2L154.4 75.4667C154 117.867 153.867 120 151.2 123.467C144.933 132 142.933 132.667 121.6 133.067L102 133.467L93.6 142.4L85.3333 151.333L76.9333 142.267L68.6667 133.333H49.8667C32.5333 133.333 30.6667 133.067 26.5333 130.267C24.1333 128.667 20.6667 125.2 19.0667 122.8C16 118.267 16 117.867 16 74.6667C16 31.4667 16 31.0667 19.0667 26.5334C20.6667 24.1334 24.1333 20.6667 26.5333 19.0667C31.0667 16 31.0667 16 85.3333 16C139.6 16 139.6 16 144.133 19.0667Z" fill="#616161"/>
<path d="M82.9331 38.5334C81.9998 39.0667 79.9998 44 78.6665 49.3334C75.4665 61.8667 72.5331 64.8 59.9998 68C43.7331 72.1334 43.7331 77.2 60.1331 81.3334C71.8665 84.4 76.5331 88.6667 77.9998 97.4667C81.1998 117.067 89.4665 116.933 92.6665 97.3334C93.9998 89.3334 99.9998 83.3334 108 82C127.6 78.8 127.733 70.5334 108.133 67.3334C99.3331 65.8667 95.0665 61.2 91.9998 49.4667C89.8665 40.9334 87.8665 37.3334 85.3331 37.3334C84.9331 37.3334 83.8665 37.8667 82.9331 38.5334ZM90.6665 69.3334L95.9998 74.6667L90.6665 80L85.3331 85.3334L79.9998 80L74.6665 74.6667L79.7331 69.4667C82.3998 66.5334 84.7998 64.1334 85.0665 64.1334C85.1998 64 87.7331 66.4 90.6665 69.3334Z" fill="#616161"/>
</svg>
