<svg width="159" height="161" viewBox="0 0 159 161" fill="none" xmlns="http://www.w3.org/2000/svg">
<path d="M24 1.53337C14.8 3.93337 7.33333 9.93337 2.53333 19C0.133333 23.2667 0 27.4 0 69.6667C0 114.2 0.133333 115.8 2.93333 121C6.26667 127.267 11.4667 132.467 18 135.8C21.6 137.667 26.8 138.467 40.9333 139L59.2 139.667L68 150.067C73.0667 155.8 77.8667 160.333 79.3333 160.333C80.6667 160.333 85.7333 155.8 90.8 149.933L99.7333 139.667L117.867 139C137.733 138.2 143.067 136.467 150.133 128.733C158.8 119.533 158.667 120.2 158.667 69.6667C158.667 27.4 158.533 23.2667 156.133 19C152.667 12.4667 147.6 7.2667 141.333 3.93337C136.133 1.13337 134.533 1.00003 82 0.733366C52.2667 0.600032 26.2667 1.00003 24 1.53337ZM138.133 14.0667C140.533 15.6667 144 19.1334 145.733 21.6667L148.8 26.2L148.4 70.4667C148 112.867 147.867 115 145.2 118.467C138.933 127 136.933 127.667 115.6 128.067L96 128.467L87.6 137.4L79.3333 146.333L70.9333 137.267L62.6667 128.333H43.8667C26.5333 128.333 24.6667 128.067 20.5333 125.267C18.1333 123.667 14.6667 120.2 13.0667 117.8C10 113.267 10 112.867 10 69.6667C10 26.4667 10 26.0667 13.0667 21.5334C14.6667 19.1334 18.1333 15.6667 20.5333 14.0667C25.0667 11 25.0667 11 79.3333 11C133.6 11 133.6 11 138.133 14.0667Z" fill="white"/>
<path d="M76.9331 33.5334C75.9998 34.0667 73.9998 39 72.6665 44.3334C69.4665 56.8667 66.5331 59.8 53.9998 63C37.7331 67.1334 37.7331 72.2 54.1331 76.3334C65.8665 79.4 70.5331 83.6667 71.9998 92.4667C75.1998 112.067 83.4665 111.933 86.6665 92.3334C87.9998 84.3334 93.9998 78.3334 102 77C121.6 73.8 121.733 65.5334 102.133 62.3334C93.3331 60.8667 89.0665 56.2 85.9998 44.4667C83.8665 35.9334 81.8665 32.3334 79.3331 32.3334C78.9331 32.3334 77.8665 32.8667 76.9331 33.5334ZM84.6665 64.3334L89.9998 69.6667L84.6665 75L79.3331 80.3334L73.9998 75L68.6665 69.6667L73.7331 64.4667C76.3998 61.5334 78.7998 59.1334 79.0665 59.1334C79.1998 59 81.7331 61.4 84.6665 64.3334Z" fill="white"/>
</svg>
